<?xml version="1.0" standalone="no"?>
<!DOCTYPE svg PUBLIC "-//W3C//DTD SVG 1.1//EN" "http://www.w3.org/Graphics/SVG/1.1/DTD/svg11.dtd" >
<svg xmlns="http://www.w3.org/2000/svg">
<metadata>Generated by IcoMoon</metadata>
<defs>
<font id="icomoon" horiz-adv-x="1024">
<font-face units-per-em="1024" ascent="960" descent="-64" />
<missing-glyph horiz-adv-x="1024" />
<glyph unicode="&#x20;" horiz-adv-x="512" d="" />
<glyph unicode="&#xe900;" glyph-name="plus" d="M544 832v-352h352v-64h-352v-352h-64v352h-352v64h352v352z" />
<glyph unicode="&#xe901;" glyph-name="minus" d="M880 480h-736v-64h736z" />
<glyph unicode="&#xe902;" glyph-name="pinterest" d="M441.14 282.72c-26.88-140.96-59.72-276.12-157-346.72-30.020 213.080 44.1 373.1 78.5 542.98-58.68 98.8 7.060 297.6 130.84 248.6 152.3-60.24-131.88-367.26 58.9-405.6 199.2-40.020 280.5 345.62 157 471.020-178.48 181.1-519.52 4.14-477.58-255.14 10.2-63.38 75.7-82.62 26.18-170.080-114.24 25.32-148.32 115.4-143.94 235.5 7.060 196.6 176.64 334.24 346.74 353.28 215.1 24.080 416.98-78.96 444.86-281.32 31.4-228.38-97.1-475.72-327.1-457.94-62.36 4.84-88.52 35.74-137.4 65.42z" />
<glyph unicode="&#xe903;" glyph-name="instagram" d="M522.078-64c-3.391 0-6.781 0-10.195 0.016-80.266-0.195-154.43 1.844-226.555 6.234-66.125 4.023-126.484 26.875-174.562 66.078-46.391 37.828-78.070 88.977-94.156 152.008-14 54.875-14.742 108.742-15.453 160.844-0.516 37.383-1.047 81.68-1.156 126.727 0.109 45.234 0.641 89.531 1.156 126.914 0.711 52.094 1.453 105.961 15.453 160.844 16.086 63.031 47.766 114.18 94.156 152.008 48.078 39.203 108.437 62.055 174.57 66.078 72.125 4.383 146.305 6.43 226.742 6.234 80.289 0.172 154.43-1.852 226.555-6.234 66.125-4.023 126.484-26.875 174.562-66.078 46.398-37.828 78.070-88.977 94.156-152.008 14-54.875 14.742-108.75 15.453-160.844 0.516-37.383 1.055-81.68 1.156-126.727-0.102-45.234-0.641-89.531-1.156-126.914-0.297-22.094-18.547-39.75-40.539-39.453-22.094 0.305-39.75 18.461-39.453 40.547 0.508 37.164 1.047 81.172 1.148 125.82-0.102 44.461-0.641 88.469-1.148 125.633-0.648 47.43-1.32 96.477-12.977 142.156-11.758 46.078-34.367 83.016-67.195 109.789-35.508 28.961-78.867 45.187-128.867 48.227-70.43 4.281-142.93 6.258-221.695 6.094-78.953 0.187-151.461-1.812-221.891-6.094-50-3.039-93.352-19.266-128.867-48.219-32.828-26.773-55.437-63.711-67.195-109.797-11.656-45.68-12.328-94.727-12.977-142.156-0.508-37.164-1.039-81.172-1.148-125.82 0.109-44.461 0.641-88.469 1.148-125.633 0.648-47.43 1.32-96.477 12.977-142.156 11.758-46.078 34.367-83.016 67.195-109.789 35.516-28.961 78.867-45.187 128.867-48.227 70.43-4.281 142.953-6.281 221.703-6.086 78.961-0.187 151.453 1.805 221.883 6.086 50 3.039 93.352 19.266 128.867 48.227 23.648 19.289 42.125 44.039 54.914 73.57 8.781 20.266 32.328 29.586 52.602 20.805s29.586-32.328 20.812-52.602c-17.93-41.398-44.094-76.312-77.773-103.773-48.078-39.211-108.437-62.055-174.562-66.078-69.070-4.203-140.023-6.25-216.555-6.25zM759.977 448c0 137.852-112.148 250-250 250-137.844 0-250-112.148-250-250s112.156-250 250-250c137.852 0 250 112.148 250 250zM679.977 448c0-93.734-76.258-170-170-170-93.734 0-170 76.266-170 170s76.266 170 170 170c93.742 0 170-76.266 170-170zM787.977 778c-33.133 0-60-26.859-60-60s26.867-60 60-60c33.141 0 60 26.859 60 60s-26.859 60-60 60z" />
<glyph unicode="&#xe904;" glyph-name="social" d="M641.472 861.728c-92.48-33.664-150.912-120.448-144.288-215.424l2.24-36.64-36.992 4.48c-134.624 17.184-252.288 75.52-352.192 173.536l-48.832 48.608-12.576-35.904c-26.624-80.032-9.6-164.576 45.856-221.44 29.6-31.424 22.912-35.904-28.096-17.184-17.76 5.952-33.312 10.464-34.784 8.224-5.152-5.248 12.576-73.312 26.624-100.256 19.232-37.44 58.432-74.048 101.376-95.776l36.256-17.184-42.912-0.736c-41.408 0-42.912-0.736-38.464-16.48 14.784-48.608 73.248-100.256 138.336-122.688l45.856-15.68-39.936-23.936c-59.168-34.464-128.736-53.888-198.304-55.328-33.28-0.736-60.64-3.744-60.64-6.016 0-7.456 90.272-49.312 142.784-65.824 157.6-48.608 344.8-27.648 485.376 55.36 99.904 59.104 199.744 176.544 246.4 290.272 25.184 60.544 50.304 171.296 50.304 224.352 0 34.432 2.24 38.912 43.648 80.032 24.448 23.936 47.36 50.112 51.808 57.6 7.424 14.24 6.624 14.24-31.072 1.504-62.88-22.464-71.776-19.456-40.672 14.208 22.912 23.936 50.304 67.328 50.304 80.032 0 2.24-11.072-1.472-23.68-8.224-13.312-7.424-42.912-18.656-65.12-25.376l-39.936-12.736-36.256 24.704c-20 13.44-48.064 28.416-62.88 32.896-37.76 10.464-95.488 8.992-129.536-2.976z" />
<glyph unicode="&#xe905;" glyph-name="facebook-app-symbol" d="M591.302-64v467.060h156.71l23.511 182.076h-180.221v116.229c0 52.699 14.574 88.612 90.229 88.612l96.335 0.040v162.855c-16.66 2.165-73.847 7.129-140.407 7.129-138.987 0-234.141-84.837-234.141-240.603v-134.261h-157.185v-182.076h157.185v-467.060h187.983z" />
<glyph unicode="&#xe906;" glyph-name="play-button" d="M73.143 960l877.714-512-877.714-512z" />
<glyph unicode="&#xe907;" glyph-name="star" d="M1022.4 565.6c-4 12-14.6 20.6-27.2 22l-322.4 33.8-131.6 296c-5.2 11.6-16.6 19-29.2 19s-24.2-7.4-29.2-19l-131.6-296.2-322.6-33.6c-12.6-1.4-23.2-10-27.2-22s-0.4-25.2 9-33.6l241-216.8-67.4-317c-2.6-12.4 2.2-25.2 12.4-32.6s23.8-8.2 34.8-1.8l280.8 162.2 280.6-162.2c5-2.8 10.4-4.2 16-4.2 6.6 0 13.2 2 18.8 6.2 10.2 7.4 15.2 20.2 12.4 32.6l-67.6 317 241.2 216.6c9.4 8.4 13 21.6 9 33.6zM715.8 350.4c-8.6-7.6-12.2-19.2-10-30.4l56.4-264.8-234.2 135.6c-5 2.8-10.4 4.2-16 4.2s-11-1.4-16-4.2l-234.4-135.4 56.4 264.6c2.4 11.2-1.4 22.8-9.8 30.4l-201.2 181 269.2 28.2c11.4 1.2 21.2 8.4 26 18.8l110 247.2 110-247.2c4.6-10.4 14.6-17.6 26-18.8l269.2-28.2z" />
<glyph unicode="&#xe908;" glyph-name="star-1" d="M1024 564.368l-372.078 24.462-140.126 352.032-140.126-352.032-371.67-24.462 285.068-242.052-93.544-367.178 320.272 202.442 320.274-202.442-93.544 367.178z" />
<glyph unicode="&#xe909;" glyph-name="comment" d="M320 608c-35.346 0-64-28.653-64-64s28.654-64 64-64c35.347 0 64 28.653 64 64s-28.653 64-64 64zM448 544c0 35.347 28.653 64 64 64s64-28.653 64-64-28.653-64-64-64-64 28.653-64 64zM704 608c-35.347 0-64-28.653-64-64s28.653-64 64-64 64 28.653 64 64-28.653 64-64 64zM160 928c-88.365 0-160-71.635-160-160v-448c0-88.365 71.635-160 160-160h0.388l0.298-149.709c0.026-13.085 8.016-24.835 20.175-29.67s26.036-1.782 35.042 7.712l162.844 171.667h485.254c88.365 0 160 71.635 160 160v448c0 88.365-71.635 160-160 160zM64 768c0 53.019 42.981 96 96 96h704c53.021 0 96-42.981 96-96v-448c0-53.021-42.979-96-96-96h-499.008c-8.781 0-17.174-3.606-23.216-9.978l-117.25-123.603-0.202 101.645c-0.035 17.648-14.352 31.936-32 31.936h-32.324c-53.019 0-96 42.979-96 96z" />
<glyph unicode="&#xe90a;" glyph-name="up-right-arrow" d="M896 864h-768c-17.664 0-32-14.336-32-32s14.336-32 32-32h690.736l-713.36-713.376c-12.496-12.496-12.496-32.752 0-45.248 6.256-6.256 14.432-9.376 22.624-9.376s16.384 3.12 22.624 9.376l713.376 713.376v-690.752c0-17.664 14.336-32 32-32s32 14.336 32 32v768c0 17.664-14.336 32-32 32z" />
<glyph unicode="&#xe90b;" glyph-name="next" d="M607.232 831.932l-39.738-44.954 349.534-308.978h-917.028v-60h917.028l-349.534-308.978 39.738-44.954 416.768 368.41v31.044z" />
<glyph unicode="&#xe90c;" glyph-name="left-arrow" d="M280.844 167.157l45.612 45.614-202.973 202.975h900.517v64.509h-900.517l202.973 202.973-45.612 45.614-280.844-280.844z" />
<glyph unicode="&#xe90d;" glyph-name="right-arrow" d="M743.156 728.843l-45.612-45.614 202.973-202.975h-900.517v-64.509h900.517l-202.973-202.973 45.612-45.614 280.844 280.844z" />
<glyph unicode="&#xe90e;" glyph-name="facebook" horiz-adv-x="1022" d="M580-62h-163.984c-27.391 0-49.672 22.281-49.672 49.672v369.875h-95.672c-27.391 0-49.672 22.289-49.672 49.672v158.492c0 27.391 22.281 49.672 49.672 49.672h95.672v79.367c0 78.695 24.711 145.648 71.453 193.609 46.953 48.18 112.57 73.641 189.758 73.641l125.063-0.203c27.344-0.047 49.586-22.328 49.586-49.672v-147.156c0-27.391-22.273-49.672-49.656-49.672l-84.203-0.031c-25.68 0-32.219-5.148-33.617-6.727-2.305-2.617-5.047-10.016-5.047-30.445v-62.703h116.539c8.773 0 17.273-2.164 24.578-6.242 15.758-8.805 25.555-25.453 25.555-43.445l-0.063-158.492c0-27.375-22.281-49.656-49.672-49.656h-116.938v-369.883c0-27.391-22.289-49.672-49.68-49.672zM426.375-1.969h143.266v386.391c0 18.289 14.883 33.164 33.164 33.164h133.453l0.055 137.766h-133.516c-18.281 0-33.156 14.875-33.156 33.164v89.578c0 23.453 2.383 50.125 20.086 70.172 21.391 24.234 55.102 27.031 78.602 27.031l73.844 0.031v126.453l-114.664 0.188c-124.047 0-201.133-79.406-201.133-207.219v-106.234c0-18.281-14.875-33.164-33.156-33.164h-112.188v-137.766h112.188c18.281 0 33.156-14.875 33.156-33.164zM752.5 901.766h0.008z" />
<glyph unicode="&#xe90f;" glyph-name="twitter" d="M1019.478 740.924c-6.054 9.848-17.132 15.43-28.664 14.43l-51.060-4.448 48.806 98.386c5.812 11.718 3.516 25.836-5.708 35.11-9.228 9.274-23.332 11.638-35.078 5.886l-129.174-63.262c-79.806 42.132-179.512 29.626-248.12-32.872-57.26-52.16-87.358-132.374-81.746-212.366-149.658 15-276.339 100.662-351.247 239.074-4.97 9.182-14.288 15.188-24.702 15.926-10.434 0.726-20.486-3.898-26.698-12.292-46.46-62.764-49.72-148.82-13.298-219.618-10.040 2.536-20.724 5.968-32.572 9.926-10.15 3.394-21.34 1.22-29.486-5.724s-12.062-17.646-10.32-28.208c14.412-87.376 65.364-154.528 145.852-194.276-10.48-3.65-21.174-6.614-32.048-8.88-10.804-2.252-19.552-10.156-22.882-20.678-3.33-10.52-0.726-22.020 6.814-30.078 57.962-61.956 141.69-92.45 201.162-107.078-67.62-52.954-140.614-61.816-246.682-58.174-12.278 0.372-23.59-6.544-28.752-17.674-5.16-11.132-3.158-24.272 5.088-33.362 44.216-48.738 205.308-103.694 374.653-107.814 6.698-0.162 13.53-0.25 20.506-0.25 118.902 0.002 276.045 25.49 388.839 138.284 85.374 85.372 138.774 183.654 158.712 292.107 16.104 87.594 5.926 157.738 1.036 191.45-0.36 2.478-0.744 5.108-1.056 7.408l47.762 76.98c6.092 9.82 6.118 22.24 0.064 32.088zM912.266 615.679c9.062-62.448 36.632-252.48-142.49-431.603-104.12-104.118-255.776-122.814-364.677-120.168-92.922 2.26-176.038 20.032-236.278 40.3 24.458 3 46.254 7.628 66.828 14.022 56.718 17.63 104.634 49.352 150.79 99.83 7.694 8.414 10.058 20.41 6.136 31.114s-13.482 18.332-24.79 19.78c-29.118 3.732-116.61 18.46-185.506 65.984 19.854 8.12 39.002 18.282 57.286 30.41 10.030 6.656 15.218 18.58 13.242 30.454-1.974 11.872-10.736 21.482-22.38 24.534-56.39 14.784-124.446 47.864-155.828 121.71 20.040-3.512 41.83-4.362 65.070 0.848 10.772 2.412 19.404 10.452 22.572 21.028 3.17 10.576 0.386 22.040-7.282 29.98-39.048 40.444-53.65 98.728-41.122 148.602 41.028-59.962 93.006-110.426 152.558-147.736 76.182-47.73 165.098-74.108 257.141-76.274 9.366-0.198 18.35 3.89 24.314 11.146 5.96 7.254 8.252 16.848 6.214 26.014-15.836 71.19 6.75 147.082 57.542 193.348 52.68 47.99 130.538 55.27 189.332 17.692 8.978-5.738 20.304-6.38 29.876-1.692l63.082 30.896-33.018-66.562c-4.906-9.89-4.092-21.658 2.13-30.776 6.22-9.118 16.862-14.18 27.876-13.214l44.484 3.874-20.492-33.030c-6.878-11.086-5.452-20.922-2.61-40.512z" />
<glyph unicode="&#xe910;" glyph-name="linkedin" d="M267.13-53.562h-267.13v690.082h267.13zM44.519-9.043h178.092v601.043h-178.092zM1024.003-53.562h-267.13v378.432c0 36.88-29.902 66.783-66.783 66.783-36.889 0-66.783-29.902-66.783-66.783v-378.432h-267.13v690.082h267.13v-44.796c40.321 29.152 88.818 44.829 138.571 44.796 144.416 0 262.125-117.147 262.125-261.285zM801.391-9.043h178.084v384.277c-0.302 119.918-97.679 216.921-217.598 216.766-54.815 0-106.296-23.095-144.693-64.834l-38.405-42.016v106.851h-178.084v-601.043h178.084v333.913c0 61.476 49.834 111.302 111.31 111.302 61.467 0 111.302-49.826 111.302-111.302zM133.565 681.046c-73.769 0-133.565 59.796-133.565 133.565 0 73.761 59.796 133.565 133.565 133.565s133.565-59.804 133.565-133.565c-0.155-73.704-59.861-133.418-133.565-133.565zM133.565 903.649c-49.174 0-89.046-39.864-89.046-89.038 0-49.182 39.872-89.046 89.046-89.046s89.046 39.864 89.046 89.046c0 49.174-39.872 89.038-89.046 89.038z" />
<glyph unicode="&#xe911;" glyph-name="instagram-1" d="M746.811 960h-469.624c-152.843 0-277.187-124.344-277.187-277.187v-469.632c0-152.836 124.344-277.179 277.187-277.179h469.632c152.836 0 277.179 124.344 277.179 277.179v469.632c0 152.843-124.344 277.187-277.187 277.187zM963.967 213.181c0-119.734-97.414-217.148-217.156-217.148h-469.624c-119.742 0-217.156 97.414-217.156 217.148v469.632c0 119.742 97.414 217.156 217.156 217.156h469.632c119.734 0 217.148-97.414 217.148-217.156zM511.999 727.993c-154.39 0-279.992-125.601-279.992-279.992s125.601-279.992 279.992-279.992 279.992 125.601 279.992 279.992-125.601 279.992-279.992 279.992zM511.999 228.040c-121.281 0-219.961 98.672-219.961 219.961 0 121.281 98.68 219.961 219.961 219.961 121.289 0 219.961-98.68 219.961-219.961 0-121.289-98.672-219.961-219.961-219.961zM798.686 827.43c-45.625 0-82.734-37.117-82.734-82.734 0-45.625 37.109-82.742 82.734-82.742s82.742 37.117 82.742 82.742-37.117 82.734-82.742 82.734zM798.686 721.993c-12.516 0-22.703 10.187-22.703 22.703 0 12.523 10.187 22.703 22.703 22.703 12.523 0 22.711-10.18 22.711-22.703 0-12.516-10.187-22.703-22.711-22.703z" />
<glyph unicode="&#xe912;" glyph-name="up-right-arrow-1" d="M853.76 836.256h-592.16c-17.673 0-32-14.327-32-32s14.327-32 32-32v0h529.408l-656.608-656.64c-6.36-5.867-10.329-14.243-10.329-23.545 0-17.673 14.327-32 32-32 9.303 0 17.678 3.97 23.525 10.307l0.020 0.022 656.64 656.64v-529.44c0-17.673 14.327-32 32-32s32 14.327 32 32v0 592.128c-0.036 25.671-20.828 46.473-46.491 46.528h-0.005z" />
<glyph unicode="&#xe913;" glyph-name="phone" d="M704.16 194.752c13.344-21.92 17.344-47.68 11.264-72.608-6.048-24.896-21.472-45.984-43.392-59.328l-79.488-48.384c-15.264-9.28-32.384-13.952-49.632-13.952-15.488 0-31.104 3.744-45.6 11.296-166.912 86.56-262.208 215.104-304.16 284-92.96 152.704-112.48 303.168-112.512 402.464 0 33.472 17.216 64 46.080 81.6l79.52 48.384c21.888 13.344 47.648 17.344 72.608 11.264 24.896-6.048 45.984-21.44 59.296-43.36l49.92-81.984c27.52-45.248 13.12-104.416-32.096-131.936l-41.184-25.056c-12.352-7.52-18.368-22.624-14.24-35.872 13.6-44 32.672-86.272 56.64-125.664 23.904-39.264 52.672-75.552 85.44-107.872 10.144-9.984 25.984-11.616 38.56-3.968l41.152 25.056c45.152 27.584 104.384 13.152 131.936-32.064l49.92-82.016zM514.848 579.392c69.76-10.752 117.728-76.288 106.976-146.016-2.688-17.472 9.28-33.824 26.752-36.512 1.664-0.256 3.296-0.384 4.928-0.384 15.52 0 29.152 11.328 31.584 27.136 16.128 104.64-55.84 202.88-160.448 219.040-17.44 2.624-33.824-9.28-36.512-26.72-2.688-17.472 9.28-33.824 26.72-36.512zM544.128 769.152c-17.312 2.688-33.824-9.28-36.512-26.752-2.688-17.44 9.28-33.792 26.752-36.512 67.584-10.432 127.040-46.56 167.456-101.728s56.928-122.752 46.496-190.336c-2.688-17.44 9.28-33.792 26.752-36.512 1.632-0.256 3.296-0.384 4.928-0.384 15.52 0 29.152 11.328 31.584 27.136 13.056 84.48-7.584 168.96-58.112 237.92s-124.864 114.080-209.344 127.136zM563.648 895.648c-17.408 2.592-33.824-9.28-36.512-26.752-2.688-17.44 9.28-33.792 26.752-36.512 209.248-32.288 353.216-228.8 320.928-438.080-2.688-17.44 9.28-33.792 26.752-36.512 1.632-0.256 3.296-0.384 4.928-0.384 15.52 0 29.152 11.328 31.584 27.136 37.696 244.128-130.272 473.376-374.432 511.072z" />
<glyph unicode="&#xe914;" glyph-name="mail" d="M457.833 441.041c14.623-12.042 33.542-19.344 54.167-19.344s39.544 7.302 54.314 19.461l-0.147-0.118 374.792 307.872c-31.212 37.68-77.944 61.559-130.259 61.753h-597.366c-52.348-0.194-99.080-24.072-130.065-61.471l-0.227-0.282zM620.333 375.083c-29.254-24.059-67.090-38.646-108.333-38.646s-79.079 14.587-108.63 38.883l0.297-0.237-358.042 294.118c-1.74-8.705-2.81-18.779-2.957-29.077l-0.001-0.124v-384c0.104-94.215 76.452-170.563 170.657-170.667h597.343c94.215 0.104 170.563 76.452 170.667 170.657v384.010c-0.149 10.421-1.219 20.495-3.133 30.267l0.174-1.067z" />
<glyph unicode="&#xe915;" glyph-name="google" d="M0 448c0 282.317 229.683 512 512 512 114.020 0 221.94-36.684 312.096-106.086l-118.979-154.556c-55.745 42.91-122.524 65.595-193.117 65.595-174.768 0-316.952-142.185-316.952-316.952s142.185-316.952 316.952-316.952c140.761 0 260.379 92.223 301.602 219.429h-301.602v195.048h512v-97.524c0-282.317-229.683-512-512-512s-512 229.683-512 512z" />
<glyph unicode="&#xe916;" glyph-name="whatsapp" d="M727.63 369.198c-5.070 2.852-10.816 6.086-17.74 10.252-3.864 2.334-8.722 5.524-13.87 8.902-26.424 17.344-46.446 29.62-63.49 29.62-3.992 0-7.768-0.676-11.21-2.004-14.932-5.75-27.194-21.112-39.052-35.966-4.346-5.442-10.566-13.234-14.34-16.716-14.972 2.722-46.55 22.284-80.626 56.36-34.116 34.116-53.682 65.73-56.368 80.666 3.478 3.788 11.33 10.054 16.806 14.428 14.798 11.814 30.1 24.030 35.882 38.916 7.376 19.126-6.142 42-27.612 74.708-3.378 5.148-6.57 10.010-8.886 13.844-4.182 6.95-7.414 12.7-10.266 17.768-11.706 20.804-19.44 34.554-48.502 34.554-18.862 0-45.53-17.824-63.594-35.5-26.252-25.694-40.712-55.358-40.712-83.586 0.050-76.668 42.838-164.54 117.394-241.172 0.128-0.128 0.256-0.162 0.388-0.29 76.632-74.558 164.552-117.2 241.218-117.2h0.030c28.19 0 57.864 14.294 83.556 40.532 17.69 18.062 35.538 44.536 35.538 63.386 0.002 29.058-13.74 36.79-34.544 48.498zM643.058 256.392c-65.304 0.048-144.966 39.624-213.134 105.87-66.254 68.176-105.83 147.844-105.872 213.142 0 39.498 51.256 77.052 64.66 79.11 2.738-0.012 4.174-0.174 4.858-0.29 1.772-2.040 5.294-8.3 8.43-13.874 2.838-5.044 6.372-11.324 10.872-18.802 2.72-4.506 6.112-9.672 9.702-15.14 6.794-10.352 20.452-31.16 22.754-40.042-3.85-5.45-15.796-14.986-22.54-20.37-17.262-13.782-32.17-25.682-32.17-42.5 0.042-40.624 52.368-96.104 68.404-112.14s71.516-68.362 112.226-68.402c16.71 0.054 28.56 14.9 42.284 32.090 5.412 6.778 15.006 18.796 20.478 22.626 8.872-2.286 29.706-15.96 40.066-22.762 5.468-3.588 10.632-6.978 15.166-9.716 7.452-4.484 13.73-8.018 18.776-10.856 5.572-3.136 11.834-6.66 13.874-8.432 0.116-0.682 0.276-2.118 0.29-4.854-2.074-13.392-39.64-64.61-79.124-64.658zM920.768 446.086c-1.404 108.082-44.788 210.214-122.156 287.584-78.796 78.796-182.806 122.192-292.874 122.192-106.25 0-205.646-40.884-279.882-115.118-65.876-65.876-106.292-153.736-113.81-247.398-7.13-88.864 15.492-178.792 63.798-254.404l-65.964-178.304c-2.768-7.484-0.824-15.898 4.95-21.408 3.794-3.622 8.764-5.532 13.812-5.532 2.632 0 5.288 0.762 7.806 1.832l171.798 73.108c65.584-40.82 140.576-61.858 217.58-61.858h0.008c106.232 0 205.626 40.396 279.852 114.622 75.616 75.618 116.488 176.408 115.082 284.684zM777.398 189.2c-66.676-66.676-156.020-103.394-251.574-103.392-72.746 0.002-143.522 21.294-204.678 61.578-3.316 2.184-7.148 3.296-11.002 3.296-2.646 0-5.302-0.524-7.808-1.588l-138.872-58.9 53.4 144.342c2.234 6.042 1.422 12.79-2.18 18.128-98.152 145.41-81.558 338.782 39.456 459.794 66.68 66.68 156.032 103.404 251.598 103.404 99.382 0 193.348-39.234 264.588-110.476 69.954-69.952 109.176-162.224 110.444-259.82 1.266-97.396-35.446-188.442-103.372-256.366z" />
<glyph unicode="&#xe917;" glyph-name="arrow-down" d="M854.626 630.627c12.497-12.497 12.497-32.758 0-45.255l-320-319.999c-12.497-12.497-32.755-12.497-45.252 0l-320.001 319.999c-12.497 12.497-12.497 32.758 0 45.255s32.758 12.497 45.255 0l297.373-297.371 297.374 297.371c12.497 12.497 32.755 12.497 45.252 0z" />
<glyph unicode="&#xe918;" glyph-name="play" d="M822.020 383.309c42.321 32.747 42.321 96.64 0 129.387-127.898 98.959-270.711 176.96-423.096 231.082l-27.839 9.888c-53.26 18.916-109.516-17.119-116.727-72.097-20.145-153.611-20.145-313.521 0-467.134 7.21-54.976 63.467-91.012 116.726-72.094l27.839 9.886c152.384 54.123 295.198 132.122 423.096 231.083z" />
<glyph unicode="&#xe919;" glyph-name="top-right" d="M190.706 171.959c-12.497-12.497-12.497-32.755 0-45.252s32.758-12.497 45.255 0l542.706 542.705v-434.745c0-17.673 14.327-32 32-32s32 14.327 32 32v544h-544c-17.673 0-32-14.327-32-32s14.327-32 32-32h434.743z" />
<glyph unicode="&#xe91a;" glyph-name="arrow-upper-right" d="M810.667 277.333c0-23.565-19.102-42.667-42.667-42.667s-42.667 19.102-42.667 42.667v323.659l-439.165-439.162c-16.662-16.661-43.677-16.661-60.34 0s-16.662 43.678 0 60.339l439.165 439.164h-323.661c-23.564 0-42.667 19.103-42.667 42.667s19.102 42.667 42.667 42.667h426.667c23.565 0 42.667-19.102 42.667-42.667z" />
<glyph unicode="&#xe91b;" glyph-name="share" d="M768 320c-56.354-0.136-106.256-27.639-137.136-69.918l-0.336-0.482-213.973 142.635c6.403 16.564 10.113 35.731 10.113 55.765s-3.71 39.201-10.48 56.853l0.367-1.088 213.973 142.635c31.312-42.112 80.92-69.099 136.831-69.099 93.903 0 170.027 76.124 170.027 170.027s-76.124 170.027-170.027 170.027c-93.903 0-170.027-76.124-170.027-170.027 0-0.232 0-0.465 0.001-0.697v0.036c0.311-6.852 0.983-13.243 2.006-19.516l-0.129 0.956-230.016-153.344c-30.122 27.237-70.251 43.904-114.273 43.904-94.257 0-170.667-76.41-170.667-170.667s76.41-170.667 170.667-170.667c44.022 0 84.151 16.667 114.421 44.035l-0.148-0.131 230.016-153.344c-0.895-5.317-1.566-11.708-1.864-18.197l-0.013-0.363c0-94.257 76.41-170.667 170.667-170.667s170.667 76.41 170.667 170.667c0 94.257-76.41 170.667-170.667 170.667v0z" />
<glyph unicode="&#xe91c;" glyph-name="calendar" d="M914.286 850.286h-109.714v73.142c0 20.199-16.374 36.572-36.572 36.572s-36.572-16.374-36.572-36.572v-73.142h-438.857v73.142c0 20.199-16.374 36.572-36.57 36.572s-36.572-16.374-36.572-36.572v-73.142h-109.714c-60.594 0-109.714-49.121-109.714-109.714v-694.857c0-60.594 49.121-109.714 109.714-109.714h804.572c60.594 0 109.714 49.121 109.714 109.714v694.857c0 60.594-49.121 109.714-109.714 109.714zM950.856 45.714c0-20.199-16.374-36.572-36.572-36.572h-804.569c-20.199 0-36.572 16.374-36.572 36.572v475.429h877.714v-475.429zM950.856 594.285h-877.714v146.286c0 20.199 16.374 36.572 36.572 36.572h109.714v-73.142c0-20.199 16.374-36.572 36.572-36.572s36.572 16.374 36.572 36.572v73.142h438.857v-73.142c0-20.199 16.374-36.572 36.572-36.572s36.572 16.374 36.572 36.572v73.142h109.714c20.199 0 36.572-16.374 36.572-36.572v-146.286zM292.571 448.001h-73.142c-20.199 0-36.572-16.374-36.572-36.572s16.374-36.572 36.572-36.572h73.142c20.199 0 36.572 16.374 36.572 36.572s-16.374 36.572-36.572 36.572zM548.571 448.001h-73.142c-20.199 0-36.572-16.374-36.572-36.572s16.374-36.572 36.572-36.572h73.142c20.199 0 36.572 16.374 36.572 36.572s-16.374 36.572-36.572 36.572zM804.572 448.001h-73.142c-20.199 0-36.572-16.374-36.572-36.572s16.374-36.572 36.572-36.572h73.142c20.199 0 36.572 16.374 36.572 36.572-0.002 20.199-16.376 36.572-36.572 36.572zM292.571 301.715h-73.142c-20.199 0-36.572-16.374-36.572-36.572s16.374-36.572 36.572-36.572h73.142c20.199 0 36.572 16.374 36.572 36.572s-16.374 36.572-36.572 36.572zM548.571 301.715h-73.142c-20.199 0-36.572-16.374-36.572-36.572s16.374-36.572 36.572-36.572h73.142c20.199 0 36.572 16.374 36.572 36.572s-16.374 36.572-36.572 36.572zM804.572 301.715h-73.142c-20.199 0-36.572-16.374-36.572-36.572s16.374-36.572 36.572-36.572h73.142c20.199 0 36.572 16.374 36.572 36.572-0.002 20.199-16.376 36.572-36.572 36.572zM292.571 155.428h-73.142c-20.199 0-36.572-16.374-36.572-36.572s16.374-36.57 36.572-36.57h73.142c20.199 0 36.572 16.374 36.572 36.572s-16.374 36.57-36.572 36.57zM548.571 155.428h-73.142c-20.199 0-36.572-16.374-36.572-36.572s16.374-36.572 36.572-36.572h73.142c20.199 0 36.572 16.374 36.572 36.572s-16.374 36.572-36.572 36.572zM804.572 155.428h-73.142c-20.199 0-36.572-16.374-36.572-36.572s16.374-36.572 36.572-36.572h73.142c20.199 0 36.572 16.374 36.572 36.572s-16.376 36.572-36.572 36.572z" />
<glyph unicode="&#xe91d;" glyph-name="user" d="M504.701 466.736c67.765 0 126.445 24.305 174.39 72.258 47.945 47.945 72.25 106.609 72.25 174.382 0 67.75-24.305 126.421-72.258 174.382-47.953 47.937-106.625 72.242-174.382 72.242-67.773 0-126.437-24.305-174.382-72.25s-72.258-106.617-72.258-174.374c0-67.773 24.312-126.445 72.265-174.39 47.953-47.937 106.625-72.25 174.374-72.25zM936.254 172.597c-1.383 19.953-4.18 41.719-8.297 64.703-4.156 23.156-9.508 45.047-15.914 65.054-6.617 20.68-15.617 41.101-26.742 60.672-11.547 20.312-25.109 38-40.328 52.554-15.914 15.227-35.398 27.469-57.929 36.398-22.453 8.883-47.336 13.383-73.953 13.383-10.453 0-20.562-4.289-40.086-17-12.016-7.836-26.070-16.898-41.758-26.922-13.414-8.547-31.586-16.555-54.031-23.805-21.898-7.086-44.133-10.68-66.078-10.68s-44.172 3.594-66.093 10.68c-22.422 7.242-40.594 15.25-53.992 23.797-15.539 9.93-29.601 18.992-41.797 26.937-19.5 12.711-29.617 17-40.070 17-26.625 0-51.5-4.508-73.945-13.398-22.516-8.914-42.008-21.156-57.937-36.398-15.211-14.562-28.781-32.242-40.312-52.547-11.117-19.57-20.117-39.984-26.742-60.679-6.398-20.008-11.75-41.89-15.906-65.047-4.117-22.953-6.914-44.726-8.297-64.726-1.359-19.594-2.047-39.93-2.047-60.469 0-53.453 16.992-96.726 50.5-128.64 33.094-31.492 76.883-47.469 130.132-47.469h493.061c53.25 0 97.023 15.969 130.124 47.469 33.515 31.89 50.508 75.172 50.508 128.648-0.008 20.633-0.703 40.984-2.070 60.484z" />
<glyph unicode="&#xe91e;" glyph-name="bubble-chat" d="M606.784 837.214c-63.59 39.22-138.944 60.786-216.784 60.786-211.892 0-390-157.866-390-360 0-70.87 22.016-138.808 63.836-197.482l-58.42-183.412c-6.172-19.374 8.34-39.106 28.59-39.106 4.63 0 9.29 1.070 13.59 3.258l177.664 90.334c7.194-3.098 14.478-5.98 21.836-8.656-41.134 64.204-63.096 137.904-63.096 215.064 0 229.794 193.356 406.456 422.784 419.214zM960.164 220.518c41.82 58.674 63.836 126.612 63.836 197.482 0 202.208-178.184 360-390 360-211.892 0-390-157.866-390-360 0-202.208 178.184-360 390-360 56.834 0 113.464 11.582 164.73 33.596l177.674-90.338c10.782-5.482 23.806-3.952 33.024 3.882s12.83 20.438 9.158 31.964zM512 388c-16.568 0-30 13.432-30 30s13.432 30 30 30 30-13.432 30-30-13.432-30-30-30zM632 388c-16.568 0-30 13.432-30 30s13.432 30 30 30 30-13.432 30-30-13.432-30-30-30zM752 388c-16.568 0-30 13.432-30 30s13.432 30 30 30 30-13.432 30-30-13.432-30-30-30z" />
<glyph unicode="&#xe91f;" glyph-name="search-1" d="M247.902 728.098c132.567 127.789 329.853 122.696 452.548 0 117.328-117.328 124.501-303.097 21.519-428.793l182.128-182.147-45.255-45.255-182.147 182.128c-125.696-102.982-311.466-95.809-428.793 21.519-122.696 122.696-128.465 328.713 0 452.548zM655.196 682.843c-99.974 99.974-262.064 99.974-362.039 0s-99.974-262.064 0-362.039c99.974-99.974 262.064-99.974 362.039 0s99.974 262.064 0 362.039z" />
<glyph unicode="&#xe920;" glyph-name="down-left-arrow" d="M798.165 673.835l-481.835-481.835h323.669c23.564 0 42.667-19.103 42.667-42.667s-19.103-42.667-42.667-42.667v0h-426.667c-5.887 0.029-11.485 1.234-16.581 3.392l0.283-0.106c-10.484 4.423-18.66 12.598-22.977 22.803l-0.105 0.28c-2.051 4.814-3.256 10.412-3.285 16.288v426.678c0 23.564 19.103 42.667 42.667 42.667s42.667-19.103 42.667-42.667v0-323.669l481.835 481.835c7.769 8.036 18.647 13.026 30.69 13.026 23.564 0 42.667-19.103 42.667-42.667 0-12.043-4.989-22.92-13.014-30.678l-0.012-0.012z" />
<glyph unicode="&#xe921;" glyph-name="link" d="M579.888 483.872c-8.192 0-16.384 3.12-22.624 9.376-49.904 49.904-131.104 49.92-181.024 0-12.48-12.496-32.768-12.496-45.248 0-12.496 12.496-12.496 32.752 0 45.248 74.864 74.88 196.672 74.864 271.52 0 12.496-12.496 12.496-32.752 0-45.248-6.24-6.256-14.448-9.376-22.624-9.376zM557.264 301.328c-49.168 0-98.336 18.72-135.76 56.144-12.496 12.496-12.496 32.752 0 45.248 12.48 12.496 32.768 12.496 45.248 0 49.904-49.904 131.104-49.92 181.024 0 12.48 12.496 32.768 12.496 45.248 0 12.496-12.496 12.496-32.752 0-45.248-37.44-37.424-86.608-56.144-135.76-56.144zM670.384 348.112c-8.192 0-16.384 3.12-22.624 9.376-12.496 12.496-12.496 32.752 0 45.248l178.752 178.752c12.48 12.496 32.768 12.496 45.248 0 12.496-12.496 12.496-32.752 0-45.248l-178.752-178.752c-6.24-6.256-14.432-9.376-22.624-9.376zM401.136 78.864c-8.192 0-16.384 3.12-22.624 9.376-12.496 12.496-12.496 32.752 0 45.248l99.92 99.92c12.48 12.496 32.768 12.496 45.248 0 12.496-12.496 12.496-32.752 0-45.248l-99.92-99.92c-6.24-6.256-14.432-9.376-22.624-9.376zM174.864 305.136c-8.192 0-16.384 3.12-22.624 9.376-12.496 12.496-12.496 32.752 0 45.248l178.752 178.736c12.496 12.496 32.768 12.496 45.248 0 12.496-12.496 12.496-32.752 0-45.248l-178.752-178.736c-6.256-6.24-14.448-9.376-22.624-9.376zM522.944 653.2c-8.192 0-16.368 3.12-22.624 9.36-12.496 12.496-12.496 32.752 0 45.264l99.92 99.936c12.496 12.496 32.752 12.496 45.264 0 12.496-12.496 12.496-32.752 0-45.264l-99.92-99.936c-6.256-6.224-14.464-9.36-22.64-9.36zM288 33.040c-49.488 0-98.976 18.4-135.76 55.2-73.6 73.6-73.6 197.936 0 271.536 12.48 12.496 32.768 12.496 45.248 0 12.496-12.496 12.496-32.752 0-45.248-49.056-49.056-49.056-131.968 0-181.024s131.968-49.056 181.024 0c12.48 12.496 32.768 12.496 45.248 0 12.496-12.496 12.496-32.752 0-45.248-36.784-36.816-86.272-55.216-135.76-55.216zM849.136 526.864c-8.192 0-16.384 3.12-22.624 9.376-12.496 12.496-12.496 32.752 0 45.248 49.056 49.056 49.056 131.968 0 181.024s-131.968 49.056-181.024 0c-12.48-12.496-32.768-12.496-45.248 0-12.496 12.496-12.496 32.752 0 45.248 73.6 73.6 197.936 73.6 271.536 0s73.6-197.936 0-271.536c-6.256-6.24-14.448-9.36-22.64-9.36z" />
<glyph unicode="&#xe922;" glyph-name="zoom" d="M981.856 875.152l-0.016-213.608c0-23.592-19.12-42.704-42.704-42.704-23.592 0-42.696 19.112-42.696 42.712v110.4l-248.152-248.368c-8.352-8.36-19.296-12.512-30.232-12.512-10.92 0-21.84 4.16-30.184 12.504-16.68 16.664-16.696 43.704-0.024 60.384l248.232 248.472h-110.376c-23.592 0-42.712 19.128-42.712 42.728 0 23.584 19.128 42.712 42.712 42.712h213.432c11.336 0 22.192-4.504 30.208-12.528 8.016-8.008 12.512-18.888 12.512-30.192zM939.144 277.184c-23.6 0-42.704-19.152-42.704-42.728v-110.4l-243.992 241.912c-16.696 16.68-44.88 16.696-61.56 0.016-16.688-16.656-17.264-43.712-0.6-60.384l241.528-242.032h-110.584c-23.592 0-42.736-19.112-42.744-42.712-0.008-23.568 19.080-42.704 42.68-42.704l213.4-0.024c11.344 0 24.496 4.504 32.488 12.512 8.008 8.008 14.808 18.872 14.808 30.192v213.632c-0.008 23.576-19.136 42.72-42.72 42.72zM371.536 367.848l-243.968-243.808v110.424c0 23.592-18.744 42.672-42.328 42.672h0.176c-23.592 0-42.624-19.104-42.624-42.672l0.016-213.6c0-11.336 4.52-22.2 12.528-30.208 8.024-8.016 18.904-12.512 30.232-12.512h213.44c23.592 0 42.712 19.128 42.712 42.712 0 23.608-19.128 42.728-42.712 42.728h-110.344l243.664 243.888c16.696 16.672 16.48 43.752-0.2 60.408s-43.904 16.64-60.592-0.032zM187.912 828.584h110.36c23.592 0 42.704 19.104 42.704 42.688 0 23.6-19.12 42.728-42.704 42.728l-213.424 0.016c-11.336 0-22.184-4.48-30.208-12.488-8-8.008-12.504-18.864-12.504-30.216l0.024-213.616c0-23.56 19.12-42.712 42.704-42.712 23.592 0 42.704 19.152 42.704 42.712v110.416l246.208-246.408c8.344-8.352 19.288-12.528 30.224-12.528 10.912 0 21.848 4.16 30.184 12.504 16.688 16.664 16.712 43.728 0.024 60.424z" />
<glyph unicode="&#xe923;" glyph-name="trophy" d="M1023.964 764.598c-1.020 86.91-45.496 134.776-125.238 134.776-30.864 0-60.604-7.184-80.046-13.178 1.936 35.524 1.966 57.452 1.966 58.542l0.002 15.208h-617.282v-15.206c0-0.52 0.052-22.794 2.010-58.562-19.44 5.998-49.208 13.196-80.102 13.196-79.74 0-124.218-47.864-125.238-134.776-1.004-85.5 18.496-161.608 57.954-226.214 38.74-63.43 88.256-101.652 122.974-122.542 55.606-33.464 111.18-40.488 148.012-40.488 9.080 0 17.828 0.428 26.010 1.272 0.542 0.056 1.044 0.12 1.574 0.178 17.808-19.178 37.006-34.54 57.52-45.956 15.122-8.414 25.64-23.088 29.244-39.954-20.39-6.346-35.236-25.396-35.236-47.846 0-22.954 15.526-42.34 36.62-48.24v-63.82h-82.284v-66.602h-81.2v-128.334h461.562v128.334h-81.2v66.602h-82.284v63.82c21.096 5.902 36.622 25.286 36.622 48.24 0 22.452-14.846 41.5-35.236 47.846 3.604 16.866 14.12 31.538 29.244 39.954 20.464 11.386 39.794 26.832 57.558 45.948 6.294-0.698 15.732-1.44 27.532-1.44 0.004 0 0.002 0 0.008 0 36.828 0 92.4 7.028 148.002 40.488 34.716 20.892 84.234 59.112 122.974 122.542 39.464 64.604 58.962 140.714 57.958 226.212zM789.984 929.534c-0.136-5.562-0.352-12.554-0.684-20.738h-554.526c-0.344 8.182-0.574 15.184-0.722 20.738h555.932zM810.668 789.908c20.604 6.858 47.308 13.774 71.23 13.774 20.058 0 34.5-4.9 42.926-14.564 9.684-11.108 12.806-29.768 9.274-55.468-14.706-107.052-61.124-190.616-130.708-235.294-24.238-15.564-50.342-21.994-72.218-24.278 46.274 97.262 68.67 219.294 79.496 315.83zM228.99 683.982c14.958-80.23 35.61-149.126 61.386-204.772 0.798-1.728 1.61-3.43 2.418-5.132-21.868 2.29-47.956 8.718-72.184 24.274-69.582 44.68-116.002 128.242-130.708 235.294-3.53 25.702-0.41 44.364 9.276 55.468 8.426 9.664 22.87 14.562 42.926 14.562 23.942 0 50.67-6.926 71.282-13.788 3.682-32.924 8.716-68.962 15.604-105.906zM328.976 405.766c-32.976 0-82.706 6.27-132.328 36.132-50.75 30.54-168.54 123.088-166.2 322.342 0.828 70.466 31.846 104.72 94.826 104.72 33.682 0 66.948-10.154 82.154-15.51 0.758-10.202 1.608-20.434 2.548-30.624-20.67 6.072-45.024 11.268-67.872 11.268-29.236 0-51.39-8.406-65.85-24.986-15.718-18.026-21.264-44.806-16.484-79.596 8.188-59.602 25.3-112.282 50.862-156.574 24.402-42.284 55.876-75.988 93.544-100.172 36.792-23.626 76.586-29.584 104.972-30.154 0.096-0.168 0.194-0.328 0.29-0.494 1.556-2.726 3.128-5.406 4.716-8.052 0.494-0.826 0.992-1.646 1.49-2.464 1.514-2.488 3.040-4.952 4.582-7.366 0.58-0.908 1.168-1.794 1.752-2.694 1.050-1.614 2.106-3.214 3.17-4.796 1.028-1.53 2.060-3.044 3.098-4.542 1.018-1.466 2.038-2.924 3.066-4.362 0.482-0.676 0.956-1.378 1.438-2.046-1.224-0.020-2.482-0.030-3.774-0.030zM712.376 33.97v-67.506h-400.736v67.506h400.736zM579.306 100.572h51.868v-36.188h-238.334v36.188h186.466zM475.122 130.986v61.964h73.77v-61.964h-73.77zM585.514 243.048c0-10.854-8.832-19.684-19.684-19.684h-107.644c-10.854 0-19.684 8.83-19.684 19.684s8.83 19.684 19.684 19.684h107.644c10.854 0 19.684-8.83 19.684-19.684zM661.582 416.896c-0.168-0.218-0.336-0.436-0.504-0.654-1.496-1.936-3.004-3.824-4.52-5.686-0.372-0.454-0.738-0.916-1.112-1.368-1.666-2.024-3.346-4.004-5.034-5.936-0.082-0.092-0.158-0.188-0.24-0.28-16.958-19.346-35.47-34.668-55.024-45.548-24.102-13.408-40.49-37.222-44.998-64.278h-76.284c-4.51 27.058-20.898 50.87-45 64.278-18.872 10.498-35.916 24.532-51.314 41.302l-3.72 4.244c-15.12 17.244-29.372 38.136-42.358 62.090l-3.978 7.342c-65.394 126.354-85.174 308.976-91.138 405.982h551.41c-0.254-4.22-0.532-8.578-0.84-13.104-0.014-0.21-0.030-0.426-0.044-0.636-0.336-4.904-0.696-9.822-1.078-14.744-0.010-0.144-0.022-0.288-0.032-0.434-1.216-15.6-2.656-31.258-4.298-46.73l-0.994-9.356c-11.050-99.056-34.388-225.25-83.602-320.306l-4.346-8.012c-9.67-17.832-20.042-33.964-30.952-48.166zM827.354 441.898c-49.626-29.864-99.346-36.132-132.32-36.132-0.002 0-0.006 0-0.008 0-1.294 0-2.552 0.010-3.778 0.030 0.020 0.028 0.040 0.058 0.060 0.086 1.974 2.724 3.918 5.488 5.832 8.29 0.234 0.342 0.464 0.692 0.698 1.034 1.618 2.384 3.212 4.8 4.788 7.24 0.406 0.626 0.812 1.254 1.214 1.884 1.744 2.738 3.47 5.494 5.162 8.298 0.266 0.438 0.524 0.888 0.788 1.33 1.386 2.316 2.756 4.654 4.108 7.014 0.316 0.552 0.642 1.080 0.96 1.636 28.386 0.57 68.18 6.528 104.972 30.154 37.668 24.188 69.142 57.892 93.544 100.172 25.56 44.292 42.672 96.972 50.862 156.574 4.776 34.792-0.768 61.572-16.484 79.596-14.458 16.582-36.614 24.988-65.85 24.988-22.846 0-47.204-5.192-67.872-11.266 0.958 10.39 1.78 20.356 2.484 29.828 0.020 0.264 0.042 0.53 0.062 0.792 15.21 5.358 48.474 15.51 82.154 15.51 62.98 0 93.998-34.254 94.828-104.716 2.332-199.254-115.454-291.8-166.204-322.342zM384.712 467.526l-25.4-16.734c8.672-13.166 17.992-25.128 27.702-35.552l22.256 20.732c-8.554 9.182-16.816 19.8-24.558 31.554zM319.432 636.156l-29.652-6.764c14.584-63.93 34.054-117.598 57.866-159.512l26.444 15.024c-22.344 39.33-40.734 90.218-54.658 151.252zM887.332 292.982l-0.022 30.414-25.674-0.016-0.018 25.674-30.414-0.020 0.018-25.676-25.674-0.018 0.020-30.414 25.674 0.018 0.018-25.672 30.414 0.020-0.018 25.674zM225.57 135.050l-0.032 30.414-21.544-0.022-0.022 21.546-30.414-0.032 0.022-21.544-21.548-0.022 0.034-30.414 21.544 0.022 0.022-21.548 30.414 0.032-0.022 21.546zM97.69 383.678h28.69v-30.414h-28.69v30.414zM282.078 293.694h28.69v-30.414h-28.69v30.414zM744.508 202.19h28.69v-30.414h-28.69v30.414z" />
<glyph unicode="&#xe924;" glyph-name="rating" d="M532 148c0-11.047-8.953-20-20-20s-20 8.953-20 20 8.953 20 20 20 20-8.953 20-20zM958 328c0 66.172-53.828 120-120 120s-120-53.828-120-120 53.828-120 120-120 120 53.828 120 120zM838 248c-44.109 0-80 35.891-80 80s35.891 80 80 80 80-35.891 80-80-35.891-80-80-80zM838 208c-50.398 0-100.656-20.922-134.891-54.844-45.063 59.219-114.547 94.844-191.109 94.844-73.32 0-144.367-33.453-191.102-94.844-34.242 33.914-84.492 54.844-134.898 54.844-100.82 0-186-82.43-186-180v-40c0-11.047 8.953-20 20-20h984c11.047 0 20 8.953 20 20v40c0 97.57-85.18 180-186 180zM40 28c0 75.891 66.859 140 146 140 43.305 0 86.25-19.188 112.836-49.688-17.578-33.953-26.836-71.797-26.836-110.313h-232zM512 208c111.289 0 200-90.297 200-200h-400c0 111.164 90.523 200 200 200zM984 8h-232c0 38.516-9.258 76.359-26.836 110.313 26.586 30.5 69.531 49.688 112.836 49.688 79.141 0 146-64.109 146-140zM306 328c0 66.172-53.828 120-120 120s-120-53.828-120-120 53.828-120 120-120 120 53.828 120 120zM186 248c-44.109 0-80 35.891-80 80s35.891 80 80 80 80-35.891 80-80-35.891-80-80-80zM672 408c0 88.227-71.773 160-160 160s-160-71.773-160-160 71.773-160 160-160 160 71.773 160 160zM512 288c-66.172 0-120 53.828-120 120s53.828 120 120 120 120-53.828 120-120-53.828-120-120-120zM670.281 811.68c-2.352 7.242-8.609 12.516-16.148 13.609l-86.266 12.523-38.625 78.969c-3.352 6.867-10.32 11.219-17.961 11.219s-14.609-4.352-17.969-11.211l-38.617-78.977-86.266-12.516c-7.539-1.094-13.797-6.375-16.148-13.617s-0.391-15.188 5.063-20.5l62.469-60.883-14.742-85.977c-1.289-7.5 1.797-15.086 7.961-19.555 6.125-4.453 14.281-5.086 21.063-1.523l77.188 40.586 77.219-40.586c6.734-3.547 14.898-2.953 21.063 1.523 6.156 4.477 9.242 12.055 7.953 19.563l-14.758 85.969 62.461 60.883c5.453 5.313 7.414 13.258 5.063 20.5zM567.297 751.602c-4.711-4.594-6.867-11.219-5.75-17.703l9.68-56.398-50.641 26.625c-5.828 3.063-12.789 3.063-18.617 0l-50.625-26.625 9.672 56.398c1.109 6.492-1.047 13.109-5.758 17.703l-40.969 39.93 56.602 8.219c6.547 0.945 12.195 5.070 15.094 11.008l25.297 51.719 25.289-51.719c2.906-5.945 8.555-10.063 15.094-11.008l56.609-8.219zM969.219 661.781c-2.352 7.242-8.609 12.516-16.148 13.609l-58.445 8.492-26.133 52.969c-3.367 6.828-10.313 11.148-17.93 11.148 0 0 0 0-0.008 0-7.609 0-14.563-4.32-17.93-11.148l-26.148-52.969-58.453-8.492c-7.531-1.094-13.789-6.367-16.141-13.609-2.359-7.242-0.398-15.188 5.055-20.5l42.289-41.242-9.984-58.203c-1.281-7.5 1.797-15.078 7.961-19.555 6.156-4.477 14.32-5.070 21.055-1.531l52.297 27.477 52.281-27.477c6.734-3.539 14.906-2.945 21.063 1.531 6.156 4.469 9.234 12.055 7.953 19.555l-9.984 58.203 42.297 41.242c5.453 5.313 7.406 13.258 5.055 20.5zM886.422 621.336c-4.719-4.594-6.867-11.211-5.75-17.695l4.906-28.625-25.711 13.508c-5.828 3.063-12.789 3.063-18.609 0l-25.734-13.516 4.914 28.633c1.109 6.484-1.039 13.102-5.75 17.695l-20.813 20.297 28.758 4.172c6.516 0.945 12.148 5.039 15.063 10.938l12.859 26.055 12.852-26.047c2.914-5.906 8.547-10 15.063-10.945l28.758-4.172zM289.219 661.781c-2.352 7.242-8.609 12.516-16.148 13.609l-58.445 8.492-26.133 52.969c-3.367 6.828-10.313 11.148-17.93 11.148s-14.57-4.32-17.938-11.148l-26.148-52.969-58.453-8.492c-7.531-1.094-13.789-6.367-16.141-13.609-2.359-7.242-0.398-15.188 5.055-20.5l42.289-41.242-9.977-58.203c-1.289-7.5 1.797-15.078 7.953-19.555s14.32-5.070 21.063-1.531l52.289 27.477 52.281-27.477c6.781-3.563 14.938-2.922 21.063 1.531 6.156 4.469 9.242 12.055 7.953 19.555l-9.984 58.203 42.297 41.242c5.453 5.313 7.406 13.258 5.055 20.5zM206.414 621.336c-4.711-4.594-6.859-11.211-5.75-17.695l4.914-28.625-25.719 13.508c-5.82 3.063-12.781 3.063-18.602 0l-25.742-13.516 4.914 28.633c1.117 6.484-1.039 13.102-5.75 17.695l-20.813 20.297 28.766 4.172c6.508 0.945 12.141 5.039 15.055 10.938l12.859 26.055 12.852-26.047c2.914-5.906 8.547-10 15.063-10.945l28.758-4.172zM599.641 141.812c-9.234 6.070-21.633 3.5-27.695-5.734-6.070-9.227-3.5-21.625 5.734-27.695 18.492-12.148 33.273-29.086 42.742-48.977 4.734-9.961 16.656-14.219 26.648-9.461 9.977 4.742 14.211 16.68 9.469 26.648-12.609 26.5-32.289 49.055-56.898 65.219z" />
<glyph unicode="&#xe925;" glyph-name="highlight" d="M0 448c256 0 512 256 512 512 0-256 256-512 512-512-256 0-512-256-512-512 0 256-256 512-512 512z" />
<glyph unicode="&#xe926;" glyph-name="star-of-life" d="M921.6 565.166l-103.332 178.964-203.868-117.729v231.199h-204.8v-231.127l-203.868 117.658-103.332-178.934 202.998-117.197-202.998-117.197 103.332-178.934 203.868 117.699v-231.168h204.8v231.199l203.899-117.729 103.301 178.964-202.926 117.166z" />
<glyph unicode="&#xe927;" glyph-name="bottom-right" d="M845.754 74.246c-0.015 0-0.034 0-0.052 0-11.029 0-21.013 4.478-28.232 11.715l-667.511 667.509c-7.239 7.239-11.716 17.239-11.716 28.285 0 22.092 17.909 40.001 40.001 40.001 11.046 0 21.046-4.477 28.285-11.716l667.508-667.51c7.238-7.239 11.715-17.238 11.715-28.284 0-22.091-17.908-40-39.999-40v0zM845.754 74.246h-478c-22.091 0-40 17.909-40 40s17.909 40 40 40v0h438v438c0 22.091 17.909 40 40 40s40-17.909 40-40v0-478c0-22.091-17.909-40-40-40v0z" />
<glyph unicode="&#xe928;" glyph-name="plus-positive-add-mathematical-symbol" d="M962.601 509.41l-398.231-1.204v390.394c0 34.016-27.383 61.399-61.399 61.399-34.005 0-61.399-27.383-61.399-61.399l1.204-389.201h-381.376c-34.016 0-61.399-27.383-61.399-61.399 0-34.005 27.383-61.388 61.399-61.388h380.774v-389.212c0-33.994 27.383-61.399 61.399-61.399s61.399 27.405 61.399 61.399v389.201h397.629c34.016 0 61.399 27.405 61.399 61.399 0 34.027-27.69 61.41-61.399 61.41z" />
<glyph unicode="&#xe929;" glyph-name="arrow-down-1" d="M981.6 746.56c-4.032 8.013-12.182 13.419-21.597 13.44h-896.003c-9.418-0.021-17.568-5.427-21.537-13.301l-0.063-0.139c-1.532-3.060-2.428-6.666-2.428-10.483 0-5.613 1.94-10.773 5.185-14.846l-0.037 0.048 448-576c4.402-5.67 11.219-9.284 18.88-9.284s14.478 3.614 18.84 9.229l0.040 0.054 448 576c3.209 4.025 5.148 9.185 5.148 14.797 0 3.816-0.897 7.423-2.491 10.621l0.062-0.138z" />
<glyph unicode="&#xe92a;" glyph-name="clock" d="M569.216 148.608l-94.869 46.165c-19.861 9.621-44.011 4.949-58.837-11.328l-33.109-36.416c-14.379 2.752-50.368 14.869-103.445 67.947-53.397 53.376-65.323 89.493-68.011 103.381l36.48 33.173c16.341 14.805 20.992 38.997 11.349 58.837l-46.165 94.891c-9.749 19.968-31.872 31.296-53.76 27.328-31.211-5.568-86.592-22.869-106.688-76.181-28.117-74.496 1.493-207.637 131.051-337.173 100.373-100.395 202.944-140.779 278.677-140.779 21.973 0 41.728 3.392 58.475 9.728 53.333 20.096 70.613 75.477 76.16 106.667 3.947 21.909-7.317 44.011-27.328 53.781zM505.323 28.096c-49.792-18.816-168.661-2.027-291.947 121.301-123.285 123.285-140.075 242.133-121.301 291.947 12.672 33.579 51.968 45.269 74.24 49.237 0.448 0.064 0.896 0.107 1.323 0.107 2.773 0 5.312-1.557 6.571-4.117l46.165-94.891c1.408-2.901 0.725-6.421-1.664-8.576l-44.117-40.107c-3.797-3.456-6.229-8.171-6.827-13.269-0.683-5.824-4.331-59.584 81.024-144.917 85.312-85.333 139.093-81.749 144.917-81.024 5.099 0.597 9.813 3.051 13.269 6.827l40.107 44.139c2.197 2.368 5.739 3.093 8.576 1.643l94.869-46.165c2.987-1.429 4.587-4.608 4.011-7.893-3.989-22.293-15.637-61.589-49.237-74.24zM554.667 917.333c-192.341 0-361.6-129.387-411.648-314.645-3.072-11.371 3.669-23.083 15.040-26.155 11.2-3.008 23.061 3.648 26.176 15.040 45.013 166.677 197.355 283.115 370.432 283.115 211.733 0 384-172.267 384-384 0-173.077-116.416-325.419-283.115-370.432-11.371-3.093-18.112-14.784-15.040-26.176 2.581-9.515 11.179-15.765 20.587-15.765 1.856 0 3.733 0.235 5.589 0.725 185.259 50.048 314.645 219.307 314.645 411.648 0 235.264-191.403 426.667-426.667 426.667zM469.333 384c5.461 0 10.923 2.091 15.083 6.251l85.333 85.333c4.011 4.011 6.251 9.429 6.251 15.083v170.667c0 11.776-9.536 21.333-21.333 21.333s-21.333-9.557-21.333-21.333v-161.835l-79.083-79.083c-8.341-8.341-8.341-21.824 0-30.165 4.16-4.16 9.621-6.251 15.083-6.251zM896 490.667c0 188.203-153.131 341.333-341.333 341.333-157.525 0-293.781-106.603-331.307-259.221-2.816-11.435 4.16-22.997 15.595-25.813s22.997 4.181 25.813 15.616c5.056 20.565 12.395 40.043 21.312 58.517l17.728-10.24c3.349-1.941 7.019-2.859 10.645-2.859 7.381 0 14.549 3.819 18.496 10.667 5.888 10.197 2.389 23.253-7.808 29.141l-17.899 10.325c21.397 31.68 48.555 58.773 79.915 79.979l10.347-17.92c3.968-6.848 11.115-10.667 18.496-10.667 3.627 0 7.296 0.917 10.645 2.859 10.219 5.888 13.717 18.944 7.808 29.141l-10.283 17.792c33.557 16.235 70.4 26.411 109.12 29.141v-41.771c0-11.776 9.536-21.333 21.333-21.333s21.333 9.557 21.333 21.333v41.579c38.848-2.773 75.584-12.992 108.949-29.248l-10.091-17.493c-5.888-10.197-2.389-23.253 7.808-29.141 3.349-1.941 7.019-2.859 10.645-2.859 7.381 0 14.549 3.819 18.496 10.667l10.219 17.707c31.403-21.333 58.539-48.469 79.851-79.851l-17.707-10.219c-10.219-5.888-13.717-18.944-7.808-29.141 3.968-6.848 11.115-10.667 18.496-10.667 3.627 0 7.296 0.917 10.645 2.859l17.472 10.091c16.277-33.365 26.496-70.101 29.248-108.949h-41.579c-11.797 0-21.333-9.557-21.333-21.333s9.536-21.333 21.333-21.333h41.771c-2.731-38.741-12.885-75.584-29.141-109.12l-17.771 10.261c-10.219 5.867-23.253 2.411-29.141-7.808s-2.389-23.253 7.808-29.141l17.92-10.347c-21.184-31.36-48.277-58.517-79.957-79.915l-10.325 17.877c-5.909 10.219-18.987 13.717-29.141 7.808-10.219-5.888-13.717-18.944-7.808-29.141l10.24-17.728c-18.475-8.917-37.931-16.256-58.517-21.312-11.435-2.816-18.411-14.379-15.595-25.813 2.389-9.728 11.115-16.235 20.693-16.235 1.685 0 3.413 0.192 5.12 0.619 152.619 37.547 259.2 173.781 259.2 331.307z" />
<glyph unicode="&#xe92b;" glyph-name="location" d="M512 407c0.001 0 0.001 0 0.002 0 94.911 0 171.852 76.941 171.852 171.852s-76.941 171.852-171.852 171.852c-94.911 0-171.852-76.941-171.852-171.852v0c0.11-94.866 76.984-171.741 171.839-171.852h0.011zM512 702.702c0.001 0 0.001 0 0.002 0 68.402 0 123.852-55.45 123.852-123.852s-55.45-123.852-123.852-123.852c-68.402 0-123.852 55.45-123.852 123.852 0 0.001 0 0.002 0 0.002v0c0.088 68.364 55.485 123.761 123.842 123.846h0.008zM467.886 72.702c10.285-13.249 26.214-21.693 44.115-21.693s33.83 8.444 44.021 21.567l0.094 0.126 212.422 275.6c59.732 77.498 93.92 168.922 96.268 257.428 2.552 96.2-31.442 182.388-98.306 249.252-65.24 64.896-155.185 105.012-254.5 105.012s-189.26-40.116-254.516-105.028l0.016 0.015c-66.864-66.86-100.858-153.048-98.3-249.246 2.348-88.506 36.538-179.93 96.27-257.428zM291.44 821.046c56.554 56.21 134.5 90.954 220.56 90.954s164.006-34.743 220.575-90.969l-0.015 0.015c112.962-112.964 112.126-295.312-2.040-443.436l-212.42-275.61c-1.422-1.833-3.624-3.001-6.1-3.001s-4.678 1.168-6.087 2.984l-0.013 0.018-212.42 275.6c-114.166 148.134-115.004 330.482-2.040 443.446zM157.352 107.846c0 46.688 35.534 89.772 100.060 121.316 3.053 1.51 6.648 2.394 10.449 2.394 13.255 0 24-10.745 24-24 0-9.382-5.383-17.506-13.229-21.453l-0.138-0.063c-46.484-22.724-73.142-51.226-73.142-78.2 0-58.57 125.936-123.84 306.648-123.84s306.648 65.27 306.648 123.85c0 26.968-26.658 55.47-73.142 78.2-7.984 4.010-13.367 12.134-13.367 21.516 0 13.255 10.745 24 24 24 3.801 0 7.395-0.884 10.589-2.456l-0.141 0.063c64.526-31.544 100.060-74.628 100.060-121.316 0-49.526-39.438-94.434-111.048-126.454-65.468-29.28-151.98-45.402-243.6-45.402s-178.134 16.122-243.6 45.4c-71.612 32.016-111.048 76.924-111.048 126.45z" />
<glyph unicode="&#xe92c;" glyph-name="phone-1" d="M582.882 959.999c-11.047 0-20-8.953-20-20s8.953-20 20-20c221.179 0 401.117-179.945 401.117-401.117 0-11.047 8.961-20 20-20 11.047 0 20 8.953 20 20 0 243.226-197.883 441.117-441.117 441.117zM883.686 498.875c11.047 0 20 8.961 20 20 0 176.898-143.914 320.812-320.804 320.812-11.047 0-20-8.961-20-20 0-11.047 8.953-20 20-20 154.836 0 280.804-125.969 280.804-280.812 0-11.039 8.953-20 20-20zM743.351 518.875c0-11.039 8.953-20 20-20s20 8.961 20 20c0 110.539-89.93 200.468-200.468 200.468-11.047 0-20-8.953-20-19.992 0-11.047 8.953-20 20-20 88.484 0 160.469-71.984 160.469-160.476zM562.882 579.031c0-11.039 8.953-19.992 20-19.992 22.141 0 40.156-18.016 40.156-40.164 0-11.039 8.953-20 20-20 11.039 0 20 8.961 20 20 0 44.203-35.961 80.156-80.156 80.156-11.047 0-20-8.953-20-20zM374.867 310.641c0-11.047-8.953-20-20-20s-20 8.953-20 20c0 11.039 8.953 20 20 20s20-8.961 20-20zM548.062-39.718c91.070-44.633 200.633-26.062 272.648 45.953l41.352 41.352c22.453 22.43 22.461 58.766 0.008 81.211l-159.781 159.765c-22.414 22.445-58.758 22.477-81.195 0.008l-67.891-67.898c-13.297-13.297-33.82-16.008-48.789-6.453-24.406 15.602-48.148 32.805-70.562 51.133-8.555 6.992-21.148 5.727-28.141-2.82-6.992-8.555-5.727-21.156 2.82-28.141 23.617-19.312 48.625-37.437 74.351-53.875 30.664-19.586 72.133-14.594 98.601 11.875l67.906 67.906c6.789 6.797 17.789 6.812 24.609-0.008l159.789-159.773c6.805-6.812 6.82-17.828 0-24.633l-41.359-41.367c-59.992-59.992-151.117-75.391-226.765-38.32-277.132 135.898-427.913 351.382-505.601 508.226-37.164 75.008-21.734 165.789 38.398 225.906l40.453 40.445c6.781 6.797 17.789 6.82 24.602-0.008l159.804-159.797c6.766-6.758 6.836-17.773-0.016-24.609l-67.891-67.898c-26.469-26.469-31.461-67.937-11.875-98.609 11.539-18.055 23.977-35.867 36.977-52.937 6.687-8.789 19.234-10.484 28.023-3.797s10.492 19.234 3.797 28.031c-12.328 16.195-24.141 33.102-35.094 50.234-9.555 14.977-6.844 35.5 6.453 48.797l67.883 67.883c22.445 22.414 22.469 58.766 0.016 81.195l-159.789 159.781c-22.406 22.445-58.758 22.477-81.187 0.008l-40.437-40.437c-72.281-72.258-90.75-181.547-45.961-271.945 80.445-162.398 236.617-385.539 523.843-526.382z" />
<glyph unicode="&#xe92d;" glyph-name="mail-1" d="M971.486 789.334h-918.972c-28.884 0-52.514-23.63-52.514-52.512v-577.642c0-28.88 23.63-52.514 52.514-52.514h918.974c28.88 0 52.514 23.63 52.514 52.514v577.642c-0.002 28.882-23.632 52.512-52.516 52.512zM951.78 749.952l-409.572-307.204c-7.364-5.604-18.668-9.11-30.21-9.058-11.54-0.052-22.842 3.454-30.208 9.058l-409.572 307.204h879.562zM733 422.478l223.18-275.694c0.224-0.276 0.498-0.486 0.736-0.736h-889.832c0.236 0.262 0.512 0.46 0.736 0.736l223.18 275.694c6.838 8.454 5.542 20.848-2.928 27.702-8.454 6.838-20.848 5.542-27.688-2.914l-221-273.002v551.072l418.788-314.092c15.742-11.724 34.894-16.884 53.824-16.936 18.904 0.040 38.072 5.2 53.824 16.936l418.788 314.092v-551.068l-220.994 272.998c-6.84 8.454-19.246 9.754-27.688 2.914-8.468-6.838-9.768-19.248-2.926-27.702z" />
<glyph unicode="&#xe92e;" glyph-name="arrowhead-pointing-to-the-right" d="M780.994 493.002l-447.996 448c-12.669 12.669-27.653 18.998-44.997 18.998s-32.339-6.329-45.008-18.998c-12.669-12.669-18.998-27.663-18.998-44.997v-895.996c0-17.331 6.329-32.335 18.998-44.997 12.683-12.669 27.677-19.012 45.008-19.012 17.334 0 32.328 6.343 44.997 19.012l447.996 448c12.658 12.655 19.012 27.66 19.012 44.997 0 17.331-6.35 32.325-19.012 44.994z" />
<glyph unicode="&#xe92f;" glyph-name="quote-left" d="M354.459 487.381h-137.848c-16.411 0-30.363 5.742-41.852 17.23-11.482 11.488-17.23 25.436-17.23 41.852v19.683c0 43.49 15.388 80.615 46.161 111.388 30.771 30.762 67.902 46.15 111.388 46.15h39.382c10.665 0 19.892 3.899 27.691 11.691 7.794 7.796 11.691 17.024 11.691 27.691v78.776c0 10.665-3.899 19.901-11.691 27.697-7.796 7.785-17.024 11.691-27.691 11.691h-39.382c-42.671 0-83.38-8.316-122.154-24.923-38.77-16.618-72.304-39.082-100.615-67.394-28.309-28.299-50.767-61.835-67.383-100.609-16.616-38.77-24.925-79.49-24.925-122.156v-433.22c0-32.838 11.482-60.72 34.457-83.704 22.977-22.97 50.881-34.454 83.699-34.454h236.318c32.816 0 60.712 11.484 83.691 34.454 22.97 22.983 34.459 50.866 34.459 83.704v236.297c0 32.831-11.488 60.714-34.474 83.699-22.968 22.968-50.874 34.457-83.691 34.457zM989.561 452.924c-22.968 22.968-50.866 34.457-83.691 34.457h-137.846c-16.403 0-30.368 5.742-41.837 17.23-11.493 11.488-17.23 25.436-17.23 41.852v19.683c0 43.49 15.388 80.615 46.145 111.388 30.76 30.762 67.889 46.15 111.397 46.15h39.373c10.667 0 19.901 3.899 27.693 11.691 7.788 7.796 11.7 17.024 11.7 27.691v78.776c0 10.665-3.91 19.901-11.7 27.697-7.79 7.785-17.024 11.691-27.693 11.691h-39.373c-42.695 0-83.395-8.316-122.18-24.923-38.763-16.618-72.286-39.082-100.598-67.394-28.311-28.299-50.78-61.835-67.389-100.609-16.612-38.77-24.932-79.49-24.932-122.156v-433.22c0-32.838 11.493-60.72 34.461-83.704 22.97-22.97 50.868-34.454 83.691-34.454h236.305c32.825 0 60.72 11.484 83.689 34.454 22.985 22.983 34.454 50.866 34.454 83.704v236.297c0.002 32.834-11.469 60.714-34.439 83.699z" />
<glyph unicode="&#xe930;" glyph-name="menu" d="M960 63.999h-895.999c-35.348 0-64 28.655-64 64s28.653 64 64 64h896.001c35.345 0 64-28.655 64-64-0.002-35.345-28.655-64-64.003-64zM960 384.001h-895.999c-35.348 0-64 28.653-64 63.998s28.653 64 64 64h896.001c35.345 0 64-28.653 64-64s-28.655-63.998-64.003-63.998zM960 704.001h-895.999c-35.348 0-64 28.653-64 64s28.653 64 64 64h896.001c35.345 0 64-28.653 64-64s-28.655-64-64.003-64z" />
<glyph unicode="&#xe931;" glyph-name="close" d="M73.44 9.44c5.792-5.798 13.797-9.385 22.64-9.385s16.848 3.587 22.64 9.385v0l393.28 393.28 393.44-393.28c5.794-5.794 13.799-9.378 22.64-9.378 17.683 0 32.018 14.335 32.018 32.018 0 8.841-3.584 16.846-9.378 22.64l-393.44 393.28 393.28 393.44c5.794 5.794 9.378 13.799 9.378 22.64 0 17.683-14.335 32.018-32.018 32.018-8.841 0-16.846-3.584-22.64-9.378v0l-393.28-393.44-393.44 393.28c-5.559 4.783-12.847 7.695-20.815 7.695-17.673 0-32-14.327-32-32 0-7.968 2.912-15.255 7.73-20.857l-0.035 0.042 393.28-393.44-393.28-393.44c-5.751-5.784-9.305-13.757-9.305-22.56s3.555-16.776 9.307-22.562l-0.002 0.002z" />
<glyph unicode="&#xe932;" glyph-name="wind-mill" d="M900.68 98.32h-310.18v181.3l162-93.52c13.892-8.146 30.593-12.957 48.418-12.957 35.671 0 66.842 19.266 83.675 47.961l0.247 0.456c0.811 1.373 1.29 3.026 1.29 4.791 0 0.885-0.121 1.742-0.346 2.556l0.016-0.067c-0.694 2.507-2.302 4.558-4.435 5.815l-0.045 0.025-310.38 179.2c41.332 11.7 71.118 49.063 71.18 93.393v212.727c-0.057 53.475-43.386 96.812-96.853 96.88h-0.007c-0.006 0-0.013 0-0.020 0-5.302 0-9.6-4.298-9.6-9.6 0 0 0 0 0 0v0-358.68c-17.258 16.053-40.472 25.905-65.988 25.905-17.821 0-34.52-4.806-48.871-13.193l0.459 0.248-184.24-106.36c-29.162-17.063-48.439-48.23-48.439-83.9 0-17.835 4.819-34.544 13.227-48.897l-0.247 0.457c1.678-2.901 4.766-4.822 8.303-4.822 1.775 0 3.437 0.484 4.861 1.326l-0.044-0.024 269.5 155.6v-276.62h-360.84c-5.121-0.241-9.181-4.451-9.181-9.61s4.061-9.369 9.16-9.609l0.022-0.001h777.36c5.121 0.241 9.181 4.451 9.181 9.61s-4.061 9.369-9.16 9.609l-0.022 0.001zM762.1 202.74l-184.24 106.36c-23.379 13.692-38.831 38.687-38.831 67.291 0 10.909 2.248 21.293 6.305 30.714l-0.193-0.505 317.74-183.46c-14.346-18.784-36.754-30.781-61.964-30.781-14.289 0-27.678 3.854-39.184 10.58l0.368-0.199zM554.86 797.1c38.514-5.021 67.957-37.606 68-77.075v-212.745c-0.043-39.474-29.486-72.059-67.608-77.038l-0.392-0.042zM213.88 241.1c-3.863 8.914-6.11 19.295-6.11 30.202 0 28.6 15.452 53.591 38.464 67.080l0.366 0.198 184.24 106.36c11.14 6.538 24.535 10.399 38.832 10.399 25.209 0 47.614-12.005 61.81-30.61l0.138-0.189zM503.36 98.34v287.66l18.6 10.74c-1.37-6.109-2.154-13.125-2.154-20.325 0-35.689 19.282-66.875 47.997-83.707l0.457-0.248 3.040-1.76v-192.4z" />
<glyph unicode="&#xe933;" glyph-name="benefit" d="M496.64 462.7c0-0.006 0-0.013 0-0.020 0-87.007 70.533-157.54 157.54-157.54s157.54 70.533 157.54 157.54c0 87.007-70.533 157.54-157.54 157.54v0c-86.959-0.102-157.426-70.563-157.54-157.509v-0.011zM654.18 600c75.851 0 137.34-61.489 137.34-137.34s-61.489-137.34-137.34-137.34c-75.851 0-137.34 61.489-137.34 137.34v0c0.091 75.814 61.526 137.249 137.331 137.34h0.009zM337.86 459.82c65.987 0 119.48 53.493 119.48 119.48s-53.493 119.48-119.48 119.48c-65.987 0-119.48-53.493-119.48-119.48v0c0.080-65.955 53.525-119.4 119.472-119.48h0.008zM337.86 678.58c54.842 0 99.3-44.458 99.3-99.3s-44.458-99.3-99.3-99.3c-54.842 0-99.3 44.458-99.3 99.3 0 0.007 0 0.014 0 0.021v-0.001c0.068 54.81 44.488 99.223 99.295 99.28h0.005zM543.66 714.24c50.81 0 92 41.19 92 92s-41.19 92-92 92c-50.81 0-92-41.19-92-92v0c0-50.81 41.19-92 92-92v0zM543.66 877.9c0.024 0 0.052 0 0.080 0 39.621 0 71.74-32.119 71.74-71.74s-32.119-71.74-71.74-71.74c-39.621 0-71.74 32.119-71.74 71.74v0c0.057 39.57 32.096 71.638 71.65 71.74h0.010zM644 370.56v-10.86c0-5.573 4.517-10.090 10.090-10.090s10.090 4.517 10.090 10.090v0 10.86c26.714 4.786 46.725 27.847 46.725 55.581 0 31.16-25.26 56.42-56.42 56.42-0.107 0-0.215 0-0.322-0.001h0.016c-14.658 0-26.54 11.882-26.54 26.54s11.882 26.54 26.54 26.54c14.658 0 26.54-11.882 26.54-26.54 0-0.007 0-0.014 0-0.021v0.001c0-5.573 4.517-10.090 10.090-10.090s10.090 4.517 10.090 10.090v0c-0.031 22.22-15.543 40.808-36.326 45.56l-0.314 0.060v11.060c0 5.573-4.517 10.090-10.090 10.090s-10.090-4.517-10.090-10.090v0-11.060c-21.114-4.784-36.642-23.389-36.642-45.62 0-25.775 20.873-46.675 46.638-46.72h0.004c0.047 0 0.104 0 0.16 0 20.015 0 36.24-16.225 36.24-36.24s-16.225-36.24-36.24-36.24c-19.973 0-36.171 16.157-36.24 36.113v0.006c0 5.578-4.522 10.1-10.1 10.1s-10.1-4.522-10.1-10.1v0c0.065-27.512 19.778-50.402 45.846-55.384l0.354-0.056zM891.88 231.080c-9.55 20.877-30.256 35.12-54.289 35.12-6.537 0-12.828-1.054-18.712-3.001l0.42 0.121-158.72-51.32c-5.213 18.368-19.213 32.606-37.049 38.057l-0.391 0.103-119.86 35.84c-24.096 7.5-51.8 11.821-80.512 11.821-29.005 0-56.98-4.409-83.292-12.592l1.985 0.532-99.66-30.080v44c0 0.030 0.001 0.065 0.001 0.101 0 5.523-4.477 10-10 10-0.035 0-0.071 0-0.106-0.001h-94.795c-5.578 0-10.1-4.522-10.1-10.1s4.522-10.1 10.1-10.1v0h84.72v-246.3h-79.86c-5.573 0-10.090-4.517-10.090-10.090s4.517-10.090 10.090-10.090v0h90c0.030 0 0.065-0.001 0.1-0.001 5.523 0 10 4.477 10 10 0 0 0 0 0 0.001v0 52l297.22-83.82c7.357-2.085 15.807-3.284 24.536-3.284 0.304 0 0.607 0.001 0.91 0.004h-0.046c0.018 0 0.040 0 0.061 0 17.1 0 33.145 4.518 47.006 12.425l-0.467-0.245 255.82 144.76c18.193 10.35 30.263 29.606 30.263 51.681 0 8.865-1.946 17.275-5.435 24.826l0.152-0.367zM856.96 172.42l-255.82-144.74c-10.525-6.032-23.137-9.589-36.579-9.589-7.141 0-14.048 1.004-20.587 2.879l0.526-0.129-302.7 85.38v128.38l105.5 32c22.587 7.1 48.56 11.19 75.488 11.19 26.636 0 52.337-4.002 76.535-11.437l-1.843 0.487 119.88-35.86c14.619-4.467 25.068-17.839 25.068-33.651 0-19.396-15.724-35.12-35.12-35.12-1.066 0-2.121 0.047-3.163 0.14l0.135-0.010-165.56 14.26c-0.285 0.029-0.616 0.045-0.95 0.045-5.25 0-9.555-4.046-9.968-9.19l-0.002-0.035c-0.029-0.284-0.045-0.615-0.045-0.949 0-5.257 4.057-9.567 9.211-9.969l0.034-0.002 165.54-14.28c1.64-0.14 3.26-0.2 4.88-0.2 0.025 0 0.055 0 0.085 0 26.962 0 49.396 19.387 54.123 44.981l0.052 0.339c0.26 1.38 0.46 2.78 0.6 4.16l163.22 52.5c3.615 1.21 7.777 1.908 12.102 1.908 21.727 0 39.34-17.613 39.34-39.34 0-14.611-7.965-27.362-19.79-34.146l-0.192-0.101z" />
<glyph unicode="&#xe934;" glyph-name="telephone-call" d="M961.12 236.992c-1.696 1.408-193.568 137.92-245.376 129.568-24.992-4.416-39.264-21.472-67.904-55.584-4.608-5.504-15.712-18.656-24.288-28.032-20.861 6.838-38.333 14.117-55.128 22.548l2.296-1.044c-88.522 43.761-158.511 113.75-201.126 199.715l-1.146 2.557c-7.387 14.499-14.666 31.971-20.69 50.018l-0.814 2.814c9.408 8.608 22.592 19.712 28.224 24.448 33.952 28.48 50.976 42.784 55.392 67.808 9.056 51.808-128.16 243.616-129.568 245.344-12.43 17.47-31.992 29.17-54.349 30.833l-0.243 0.015c-55.616 0-214.4-205.952-214.4-240.672 0-2.016 2.912-206.944 255.616-464 256.768-252.416 461.696-255.328 463.712-255.328 34.688 0 240.672 158.784 240.672 214.4-1.696 22.602-13.404 42.162-30.655 54.44l-0.225 0.152zM747.776 32.192c-27.776 2.368-199.936 25.056-414.976 236.288-212.256 216.096-234.368 388.544-236.576 415.264 43.536 67.721 93.299 126.182 149.84 177.283l0.752 0.669c1.28-1.28 2.976-3.2 5.152-5.696 41.597-56.154 79.734-119.817 111.441-187.107l2.927-6.909c-10.056-10.115-20.657-19.651-31.769-28.575l-0.743-0.577c-17.987-13.787-33.833-28.719-48.046-45.106l-0.338-0.398c-3.715-5.159-5.941-11.606-5.941-18.572 0-1.929 0.171-3.818 0.498-5.653l-0.029 0.194c7.513-32.052 18.123-60.231 31.839-86.533l-0.959 2.021c50.186-101.491 130.437-181.732 229.005-230.59l2.931-1.314c24.283-12.779 52.462-23.4 82.037-30.417l2.475-0.495c1.662-0.309 3.575-0.486 5.529-0.486 6.946 0 13.371 2.233 18.595 6.021l-0.092-0.064c16.843 14.609 31.828 30.518 45.099 47.81l0.565 0.766c10.048 11.968 23.456 27.936 28.544 32.448 74.347-34.585 138.153-72.771 197.49-116.656l-3.058 2.16c2.656-2.24 4.544-3.968 5.792-5.088-51.775-57.312-110.246-107.087-174.573-148.564l-3.411-2.060zM736 480h64c-0.164 141.319-114.681 255.836-255.984 256h-0.016v-64c105.995-0.109 191.891-86.005 192-191.99v-0.010zM896 480h64c-0.273 229.641-186.359 415.727-415.974 416h-0.026v-64c194.309-0.237 351.763-157.691 352-351.977v-0.023z" />
<glyph unicode="&#xe935;" d="M737.29 116.864c-28.282 49.451-69.316 90.891-119.579 119.622-25.185 14.397-56.97 9.826-77.498-10.702-0.692-0.692-8.060-12.609-20.977-24.223-125.218-113.188-372.023 148.378-212.606 257.55 21.006 21.006 25.018 52.807 10.83 77.626-28.731 50.262-70.171 91.297-119.622 119.579-25.206 14.419-56.671 9.292-77.476-10.937-312.328-303.038 301.938-918.511 605.991-605.991 20.229 20.806 25.356 52.27 10.937 77.476z" />
<glyph unicode="&#xe936;" d="M566.302 136.321c-30.115-9.86-63.37-5.417-94.903 8.461-14.953 6.579-13.308 28.267 2.533 32.262 16.113 4.063 31.454 11.996 45.307 24.518 0.709-0.709 22.598-12.706 52.042-35.455 10.832-8.371 8.032-25.526-4.979-29.786z" />
<glyph unicode="&#xe937;" d="M204.66 99.427c-152.776 144.838-236.114 366.935-106.213 522.347 22.591-13.393 43.867-28.265 63.773-44.448 6.827-5.55 8.239-15.416 3.345-22.726-87.495-130.672-40.855-299.973 64.284-432.197 13.212-16.617-9.783-37.58-25.189-22.976z" />
<glyph unicode="&#xe938;" d="M737.29 116.864c14.419-25.206 9.292-56.671-10.937-77.476-7.669-7.882-15.529-15.188-23.583-21.916-75.588 127.427-180.27 180.812-183.534 184.089 7.412 6.665 14.397 14.675 20.848 24.095 21.006 21.006 52.807 25.018 77.626 10.83 50.262-28.731 91.297-70.171 119.579-119.622z" />
<glyph unicode="&#xe939;" d="M625.876 183.277c-1.222-1.205-8.38-13.107-21.993-25.159-6.25-5.535-15.632-5.601-22.098-0.318-36.527 29.852-60.776 41.991-62.547 43.76 7.412 6.665 14.397 14.675 20.848 24.095 19.693 19.693 50.848 26.347 79.595 9.698 18.904-10.948 21.752-36.741 6.195-52.076z" />
<glyph unicode="&#xe93a;" d="M317.461 536.736c14.169-24.787 10.206-56.59-10.83-77.626-9.42-6.451-17.431-13.415-24.117-20.827-43.897 73.503-106.25 137.351-184.068 183.491 6.729 8.053 14.013 15.935 21.916 23.604 20.806 20.229 52.27 25.356 77.476 10.937 49.451-28.282 90.891-69.316 119.622-119.579z" />
<glyph unicode="&#xe93b;" d="M204.269 652.538c17.251-10.401 18.768-34.438 3.73-47.842-4.009-3.574-13.915-13.583-22.948-24.262-6.047-7.15-16.63-8.121-23.912-2.232-19.597 15.843-40.509 30.422-62.695 43.572 6.729 8.053 14.013 15.935 21.916 23.604 20.806 20.229 52.27 25.356 77.476 10.937 2.16-1.235 4.304-2.493 6.432-3.777z" />
<glyph unicode="&#xe93c;" d="M989.991 644.417c0.848-193.266-189.829-347.591-386.293-288.395-28.432-25.847-63.784-38.792-99.756-39.048-18.221-0.128-27.641 21.468-15.124 34.69 12.347 13.009 22.749 28.175 30.525 45.136-79.42 55.197-130.858 147.818-128.807 252.338 3.161 160.955 140.043 294.419 301.041 293.714 164.501-0.726 297.708-133.934 298.413-298.435z" />
<glyph unicode="&#xe93d;" d="M531.973 319.798c-9.228-1.822-18.614-2.764-28.030-2.824-18.221-0.128-27.641 21.468-15.124 34.69 4.475 4.714 8.696 9.709 12.624 14.968 9.237 12.364 27.062 14.002 38.881 4.078 1.273-1.068 2.553-2.125 3.843-3.174 17.881-14.517 10.3-43.297-12.195-47.738z" />
<glyph unicode="&#xe93e;" d="M770.417 932.011c20.244-5.605 14.664-35.649-6.229-33.488-186.488 19.308-348.825-141.145-329.387-329.297 2.153-20.85-27.861-26.567-33.46-6.366-62.129 224.165 147.983 430.377 369.076 369.15z" />
<glyph unicode="&#xe93f;" d="M914.286 867.133c-119.124 119.128-315.054 127.835-444.345 1.713-141.551-138.080-123.185-361.625 27.519-477.229-5.861-10.172-12.904-19.622-21.038-28.211-22.626-23.888-6.141-63.521 27.628-63.521 41.128 0.28 80.599 15.724 111.141 43.489 6.983 6.348 7.498 17.155 1.149 24.14s-17.155 7.498-24.14 1.151c-24.3-22.089-55.688-34.378-88.385-34.601-0.577-0.019-2.38-0.015-3.29 2.081-0.897 2.063 0.312 3.341 0.711 3.76 13.908 14.684 25.225 31.426 33.637 49.76 3.45 7.521 1.017 16.433-5.778 21.158-77.925 54.169-123.334 143.132-121.469 237.972 2.959 150.403 132.287 276.967 282.704 276.967 154.872 0 281.903-126.417 282.574-281.419 0.598-138.244-102.52-258.87-239.861-280.581-9.322-1.474-15.685-10.226-14.211-19.547 1.474-9.324 10.236-15.688 19.547-14.211 73.446 11.612 141.337 49.829 191.173 107.613 110.199 127.786 100.952 313.293-15.267 429.517z" />
<glyph unicode="&#xe940;" d="M731.781 609.429c31.792 16.762 50.732 50.803 48.255 86.724-3.095 44.869-39.264 81.039-84.135 84.135-53.661 3.706-97.156-38.971-97.156-90.534 0-9.437 7.652-17.089 17.089-17.089s17.089 7.652 17.089 17.089c0 32.704 27.56 58.711 60.627 56.438 27.94-1.927 50.461-24.45 52.388-52.388 1.547-22.431-10.268-43.683-30.098-54.139-26.789-14.124-43.429-41.255-43.429-70.801 0-9.437 7.652-17.089 17.089-17.089s17.089 7.652 17.089 17.089c0 16.828 9.653 32.375 25.193 40.567z" />
<glyph unicode="&#xe941;" d="M688.48 522.039c-9.437 0-17.089-7.652-17.089-17.089v-8.544c0-9.437 7.652-17.089 17.089-17.089s17.089 7.652 17.089 17.089v8.544c0 9.437-7.652 17.089-17.089 17.089z" />
<glyph unicode="&#xe942;" d="M629.374 249.486c-8.143 4.772-18.614 2.042-23.384-6.101-4.772-8.143-2.040-18.612 6.101-23.384 45.702-26.787 83.814-65.292 110.221-111.361 10.309-17.984 7.511-40.962-6.803-55.88-276.473-288.156-835.504 250.257-613.104 546.554 42.993-27.218 81.511-60.522 114.606-99.139 6.133-7.156 16.92-8.004 24.097-1.854 7.164 6.141 7.998 16.929 1.856 24.095-34.261 39.975-73.973 74.601-118.197 103.148 2.892 3.012 5.881 6.009 8.982 8.982 14.91 14.303 37.867 17.102 55.827 6.81 46.806-26.819 85.739-65.649 112.592-112.293 10.702-18.588 11.373-45.334-4.684-55.517-0.282-0.179-0.562-0.367-0.833-0.564-43.576-29.963-64.171-74.304-57.989-124.894 14.97-122.548 177.997-244.289 281.991-167.451 43.641-27.462 82.708-61.186 116.238-100.397 3.381-3.954 8.173-5.983 12.996-5.983 14.425 0 22.506 17.055 12.979 28.194-38.512 45.035-83.859 83.299-134.779 113.73-6.479 3.907-14.713 3.052-20.252-1.937-79.777-71.865-222.853 36.529-235.249 137.986-4.697 38.463 9.967 69.65 43.585 92.696 33.738 21.741 34.468 68.441 15.617 101.187-29.869 51.882-73.17 95.069-125.22 124.894-31.029 17.781-70.703 12.928-96.481-11.8-333.281-319.712 310.512-963.189 630.084-630.111 24.742 25.787 29.594 65.486 11.793 96.539-29.365 51.23-71.756 94.057-122.589 123.851z" />
<glyph unicode="&#xe943;" glyph-name="arrows" d="M488.965 145.25c-3.315 0-6.63 1.070-9.4 3.21-5.565 4.31-7.495 11.841-4.675 18.29l122.76 281.25-122.76 281.25c-2.82 6.45-0.89 13.99 4.675 18.295 5.57 4.305 13.345 4.275 18.885-0.070l366.075-287.395c3.711-2.91 5.876-7.366 5.876-12.080s-2.165-9.17-5.875-12.080l-366.075-287.39c-2.785-2.19-6.136-3.28-9.485-3.28zM527.43 685.67l101.055-231.525c1.715-3.92 1.715-8.37 0-12.29l-101.055-231.525 302.735 237.67zM168.96 145.25c-3.315 0-6.63 1.070-9.4 3.21-5.565 4.31-7.495 11.841-4.675 18.29l122.76 281.25-122.76 281.25c-2.82 6.45-0.89 13.99 4.675 18.295 5.57 4.305 13.345 4.275 18.885-0.070l366.075-287.395c3.71-2.91 5.875-7.365 5.875-12.080s-2.165-9.17-5.875-12.080l-366.074-287.39c-2.785-2.19-6.136-3.28-9.485-3.28zM207.425 685.67l101.055-231.525c1.715-3.92 1.715-8.37 0-12.29l-101.055-231.525 302.735 237.67z" />
<glyph unicode="&#xe944;" glyph-name="strategy" d="M221.082 744.96c48.071 0 87.040 38.969 87.040 87.040s-38.969 87.040-87.040 87.040c-48.071 0-87.040-38.969-87.040-87.040v0c0.058-48.047 38.993-86.982 87.034-87.040h0.006zM221.082 898.56c36.76 0 66.56-29.8 66.56-66.56s-29.8-66.56-66.56-66.56c-36.76 0-66.56 29.8-66.56 66.56v0c0.058 36.737 29.823 66.502 66.554 66.56h0.006zM87.45 666.624l-45.978-140.8c-0.473-1.136-0.747-2.456-0.747-3.84s0.275-2.704 0.772-3.908l-0.025 0.068 80.282-164.352 12.288-366.592c0-5.655 4.585-10.24 10.24-10.24v0h134.554c5.655 0 10.24 4.585 10.24 10.24v0l28.365 605.082 99.635 9.318c1.030 0.119 1.966 0.335 2.859 0.643l-0.094-0.028 179.712 69.53c3.877 1.517 6.573 5.224 6.573 9.561 0 1.273-0.232 2.492-0.657 3.617l0.023-0.070-15.974 43.827c-1.463 3.983-5.223 6.774-9.636 6.774-0.906 0-1.785-0.118-2.621-0.339l0.071 0.016-165.786-42.394c-19.149 3.584-114.586 21.504-134.451 21.504h-123.494c-0.159 0.001-0.346 0.002-0.534 0.002-30.467 0-56.324-19.742-65.475-47.131l-0.141-0.487zM153.6 693.76h123.494c15.77 0 101.274-15.565 133.12-21.504 0.661-0.171 1.42-0.27 2.202-0.27s1.541 0.098 2.265 0.284l-0.063-0.014 159.027 40.96 9.318-25.702-169.267-65.434-107.11-10.24c-5.198-0.538-9.216-4.894-9.216-10.189 0-0.018 0-0.036 0-0.054v0.003l-28.262-604.16h-46.387v348.16c0 5.655-4.585 10.24-10.24 10.24s-10.24-4.585-10.24-10.24v0-348.16h-48.026l-12.083 359.014-7.27 217.498c0 5.655-4.585 10.24-10.24 10.24v0c-5.655 0-10.24-4.585-10.24-10.24v0l5.734-169.062-57.856 118.477 44.646 136.909c6.535 19.604 24.719 33.488 46.145 33.488 0.193 0 0.386-0.001 0.578-0.003h-0.029zM409.6-23.040h129.946c5.655 0 10.24 4.585 10.24 10.24v0 153.6c0 5.655-4.585 10.24-10.24 10.24v0h-129.946c-5.655 0-10.24-4.585-10.24-10.24v0-153.6c0-5.655 4.585-10.24 10.24-10.24v0zM419.84 130.56h109.466v-133.12h-109.466zM626.176 304.64c-5.655 0-10.24-4.585-10.24-10.24v0-307.2c0-5.655 4.585-10.24 10.24-10.24v0h130.048c5.655 0 10.24 4.585 10.24 10.24v0 307.2c0 5.655-4.585 10.24-10.24 10.24v0zM745.984-2.56h-109.568v286.72h109.568zM972.8 509.44h-129.946c-5.655 0-10.24-4.585-10.24-10.24v0-512c0-5.655 4.585-10.24 10.24-10.24v0h129.946c5.655 0 10.24 4.585 10.24 10.24v0 512c0 5.655-4.585 10.24-10.24 10.24v0zM962.56-2.56h-109.466v491.52h109.466zM802.406 602.522l49.562-32.563c1.574-1.037 3.505-1.654 5.58-1.654 1.041 0 2.045 0.155 2.992 0.444l-0.073-0.019c2.9 0.873 5.212 2.917 6.425 5.568l0.026 0.064 63.488 140.902 37.478-20.48c1.309-0.652 2.851-1.033 4.482-1.033 0.152 0 0.304 0.003 0.454 0.010l-0.021-0.001c0.007 0 0.015 0 0.023 0 2.13 0 4.109 0.651 5.747 1.764l-0.036-0.023c2.714 1.869 4.47 4.959 4.47 8.459 0 0.411-0.024 0.816-0.071 1.214l0.005-0.048-9.523 88.576c-0.558 5.178-4.905 9.174-10.184 9.174-1.503 0-2.93-0.324-4.216-0.905l0.064 0.026-84.787-37.683c-3.652-1.619-6.153-5.212-6.153-9.389 0-3.897 2.177-7.286 5.382-9.016l0.054-0.027 35.021-18.842 3.686-2.048-59.085-131.277-37.376 24.576-37.581 24.269c-1.574 1.037-3.505 1.654-5.58 1.654-1.041 0-2.045-0.155-2.992-0.444l0.073 0.019c-2.9-0.873-5.212-2.917-6.425-5.568l-0.026-0.064-78.029-172.851-23.654-52.531-12.698 10.24-85.709 65.946c-1.718 1.35-3.913 2.165-6.298 2.165-1.041 0-2.045-0.155-2.991-0.444l0.073 0.019c-3.153-1.011-5.598-3.422-6.635-6.481l-0.021-0.072-96.256-278.528c-0.48-1.144-0.759-2.475-0.759-3.87 0-4.536 2.95-8.384 7.036-9.729l0.072-0.021c0.508-0.071 1.094-0.111 1.69-0.111s1.182 0.040 1.756 0.119l-0.067-0.007c0.17-0.010 0.368-0.016 0.568-0.016 4.45 0 8.238 2.839 9.65 6.805l0.022 0.072 8.397 24.678 82.842 240.23 97.075-75.059c1.708-1.322 3.88-2.12 6.239-2.12 4.123 0 7.676 2.436 9.3 5.948l0.026 0.063 102.298 226.509zM901.632 754.074l52.941 23.45 5.939-55.296z" />
<glyph unicode="&#xe945;" glyph-name="coin-stack" d="M159.2 590.82c-0.097-0.524-0.153-1.127-0.153-1.744 0-4.97 3.625-9.093 8.375-9.869l0.058-0.008c0.489-0.089 1.052-0.14 1.627-0.14 0.018 0 0.037 0 0.055 0h-0.003c0.482 0.010 0.944 0.054 1.397 0.128l-0.057-0.008c0.396-0.066 0.858-0.11 1.329-0.12h0.011c0.016 0 0.034 0 0.053 0 0.575 0 1.138 0.051 1.685 0.149l-0.058-0.009c4.808 0.784 8.433 4.907 8.433 9.876 0 0.616-0.056 1.219-0.162 1.805l0.009-0.061c-0.1 0.62-0.42 2.48-0.98 5.32 6.96 32.42 36 144.62 103.78 144.62 5.573 0 10.090 4.517 10.090 10.090s-4.517 10.090-10.090 10.090v0c-67.78 0-96.82 112.2-103.78 144.6 0.56 2.84 0.88 4.72 0.98 5.32 0.085 0.494 0.134 1.063 0.134 1.643 0 5.589-4.531 10.12-10.12 10.12-0.456 0-0.906-0.030-1.346-0.089l0.052 0.006c-0.457 0.076-0.983 0.12-1.52 0.12s-1.063-0.043-1.576-0.127l0.056 0.008c-4.808-0.784-8.433-4.907-8.433-9.876 0-0.616 0.056-1.219 0.162-1.805l-0.009 0.061c0.1-0.6 0.42-2.48 0.98-5.32-6.98-32.4-36-144.6-103.78-144.6-5.573 0-10.090-4.517-10.090-10.090s4.517-10.090 10.090-10.090v0c67.78 0 96.8-112.2 103.78-144.62-0.56-2.9-0.88-4.76-0.98-5.38zM95.34 750.82c39.84 22 63 75.080 75.16 114.2 12.16-39.12 35.3-92.28 75.14-114.2-39.84-22-62.98-75.080-75.14-114.2-12.16 39.14-35.32 92.3-75.16 114.22zM960 73.44c-26.5 0-41.32 43.86-46.1 66.28 0.18 0.96 0.3 1.6 0.34 1.84 0.099 0.529 0.156 1.137 0.156 1.759 0 5.523-4.477 10-10 10-0.217 0-0.432-0.007-0.645-0.020l0.029 0.001c-0.238 0.021-0.515 0.033-0.795 0.033-0.603 0-1.193-0.056-1.765-0.162l0.059 0.009c-4.808-0.784-8.433-4.907-8.433-9.876 0-0.616 0.056-1.219 0.162-1.805l-0.009 0.061c0-0.22 0.14-0.8 0.3-1.66-3.64-16.24-17.26-66.46-46-66.46-5.573 0-10.090-4.517-10.090-10.090s4.517-10.090 10.090-10.090v0c26.5 0 41.32-43.88 46-66.28-0.18-0.96-0.28-1.6-0.32-1.86-0.095-0.518-0.15-1.115-0.15-1.724 0-4.968 3.623-9.091 8.372-9.868l0.058-0.008c0.489-0.089 1.052-0.14 1.627-0.14 0.018 0 0.037 0 0.055 0h1.317c0.012 0 0.025 0 0.039 0 0.58 0 1.148 0.051 1.699 0.149l-0.058-0.009c4.806 0.785 8.43 4.907 8.43 9.876 0 0.609-0.054 1.206-0.159 1.785l0.009-0.061c0 0.26-0.16 0.9-0.34 1.86 4.78 22.4 19.6 66.28 46.1 66.28 5.573 0 10.090 4.517 10.090 10.090s-4.517 10.090-10.090 10.090v0zM903.64 22c-6 15.040-15.020 31.2-28 41.3 12.96 10.12 22 26.28 28 41.32 6-15.040 15.040-31.2 28-41.32-12.96-10.060-21.96-26.22-28-41.3zM977.7 567.8c-0.005 0.711-0.085 1.401-0.232 2.065l0.012-0.065v89.12c0.14 1.58 0.22 3.18 0.22 4.78 0 50.58-69.54 90.2-158.28 90.2-60.34 0-111.78-18.32-138.54-46v52.48c0.14 1.58 0.22 3.18 0.22 4.78 0 50.6-69.54 90.22-158.3 90.22-87.3 0-156-38.34-158.16-87.74-0.199-0.743-0.315-1.597-0.32-2.477v-192.603c-15.17 2.939-32.615 4.62-50.454 4.62-0.178 0-0.356 0-0.534-0.001h0.028c-87.3 0-156-38.34-158.18-87.74-0.191-0.725-0.3-1.557-0.3-2.414 0-0.016 0-0.032 0-0.048v0.002-383.56c0-0.009 0-0.020 0-0.032 0-0.869 0.109-1.713 0.315-2.519l-0.015 0.070c2.24-49.4 70.88-87.74 158.18-87.74 68 0 124.56 23.22 147.42 56.78 21.76-34.84 79.46-59.14 148.98-59.14 88.76 0 158.28 39.62 158.28 90.2 0 0.007 0 0.016 0 0.024 0 0.699-0.073 1.382-0.211 2.040l0.011-0.064v89.12c0 0.84 0 1.7 0.1 2.56 15.301-3.053 32.891-4.801 50.889-4.801 0.208 0 0.416 0 0.624 0.001h-0.032c88.74 0 158.28 39.62 158.28 90.22-0.007 0.712-0.087 1.402-0.232 2.067l0.012-0.067v89.1c0.14 1.58 0.22 3.18 0.22 4.78-0.005 0.711-0.085 1.401-0.232 2.065l0.012-0.065v89.1c0.14 1.6 0.22 3.18 0.22 4.8-0.006 0.712-0.086 1.401-0.232 2.066l0.012-0.066v89.1c0.14 1.58 0.22 3.18 0.22 4.78zM957.3 564c-4-36.3-65.48-66.3-137.88-66.3-74.86 0-138 32-138 70-0.005 0.711-0.085 1.401-0.232 2.065l0.012-0.065v49.52c26.82-27.5 78.12-45.72 138.32-45.72 59.86 0 110.94 18 137.88 45.3zM747.64 193.22c-4-36.32-65.48-66.3-137.88-66.3-74.86 0-138 32-138 70 0.010 0.158 0.015 0.344 0.015 0.53s-0.005 0.372-0.016 0.555l0.001-0.025c0 0.44 0 0.86 0 1.3-0.005 0.711-0.085 1.401-0.232 2.065l0.012-0.065v47.060c26.82-27.5 78.14-45.72 138.32-45.72 59.86 0 110.96 18 137.88 45.3zM313.36 396.76c59.88 0 110.96 18 137.9 45.3v-54.7c-4-36.3-65.5-66.3-137.9-66.3-74.86 0-138.1 32-138.1 70 0 0.007 0 0.016 0 0.024 0 0.699-0.073 1.382-0.211 2.040l0.011-0.064v49.44c26.82-27.5 78.12-45.74 138.3-45.74zM471.66 486.98c0 0.3 0 0.6 0 0.9 15.207-2.99 32.692-4.701 50.577-4.701 0.212 0 0.424 0 0.636 0.001h-0.033c59.88 0 110.96 18 138 45.3v-54.18c-15.147 2.952-32.566 4.641-50.379 4.641-0.197 0-0.395 0-0.592-0.001h0.031c-60.18 0-111.5-18.24-138.32-45.74v48.98c0 1.6 0.080 3.18 0.080 4.8zM313.36 300.88c59.88 0 110.96 18 137.9 45.3v-54.7c-4-36.32-65.5-66.32-137.9-66.32-74.86 0-138.1 32-138.1 70 0 0.708-0.073 1.399-0.211 2.066l0.011-0.066v49.44c26.82-27.5 78.12-45.72 138.3-45.72zM175.060 250.72c26.82-27.52 78.12-45.74 138.3-45.74 59.88 0 110.96 18 137.9 45.3v-54.7c-4-36.3-65.5-66.3-137.9-66.3-74.86 0-138.1 32-138.1 70 0 0.007 0 0.016 0 0.024 0 0.699-0.073 1.382-0.211 2.040l0.011-0.064zM747.64 289.1c-4-36.3-65.48-66.3-137.88-66.3-74.86 0-138 32-138 70 0.010 0.158 0.015 0.344 0.015 0.53s-0.006 0.372-0.017 0.555l0.001-0.025c0 0.44 0 0.88 0 1.32-0.007 0.712-0.087 1.402-0.232 2.067l0.012-0.067v47.060c26.82-27.5 78.14-45.74 138.32-45.74 59.86 0 110.96 18 137.88 45.32zM747.78 390.28c-0.082-0.464-0.132-1.003-0.14-1.553v-3.727c-4-36.32-65.48-66.3-137.88-66.3-74.86 0-138 32-138 70s63.24 70 138 70c73.84 0.040 136.24-31.16 138.020-68.42zM819.42 733.72c73.82 0 136.32-31.2 138-68.46-0.083-0.465-0.134-1.004-0.14-1.554v-3.706c-4-36.3-65.48-66.3-137.88-66.3-74.86 0-138 32-138 70s63.16 70.020 138.020 70.020zM660.7 665.56c-4-36.32-65.48-66.32-138-66.32-74.84 0-138 32-138 70-0.007 0.712-0.087 1.402-0.232 2.067l0.012-0.067v49.44c26.82-27.5 78.12-45.72 138.3-45.72s110.96 18 138 45.3zM522.7 835.2c73.84 0 136.34-31.22 138-68.48-0.083-0.465-0.134-1.004-0.14-1.554v-3.726c-4-36.3-65.48-66.3-138-66.3-74.84 0-138 32-138 70s63.44 70.060 138.24 70.060zM384.5 624.78c26.82-27.5 78.12-45.72 138.3-45.72s110.96 18 138 45.3v-54.7c-4-36.3-65.48-66.3-138-66.3-0.289-0.001-0.631-0.002-0.973-0.002-19.284 0-38.058 2.187-56.086 6.326l1.679-0.324-0.54 0.1c-11.26 25.86-41.6 46.96-82.38 58.38zM313.36 557c72.4 0 134-30 137.9-66.3v-7.44c-4-36.32-65.5-66.32-137.9-66.32-74.86 0-138.1 32-138.1 70s63.24 70.060 138.1 70.060zM313.36 33.38c-74.86 0-138.1 32-138.1 70 0 0.708-0.073 1.399-0.211 2.066l0.011-0.066v49.44c26.82-27.5 78.12-45.72 138.3-45.72 59.88 0 110.96 18 137.9 45.3v-54.22c-3.42-36.52-65.16-66.8-137.9-66.8zM747.78 99.5c-1.7-37.28-64.18-68.48-138-68.48-74.86 0-138 32-138 70 0.010 0.158 0.015 0.344 0.015 0.53s-0.006 0.372-0.017 0.555l0.001-0.025c0 0.44 0 0.88 0 1.32-0.007 0.712-0.087 1.402-0.232 2.067l0.012-0.067v47.060c26.82-27.5 78.14-45.74 138.32-45.74 59.86 0 110.96 18 137.88 45.32v-51c-0.013-0.192-0.021-0.417-0.021-0.643 0-0.316 0.015-0.628 0.044-0.936l-0.003 0.039zM957.44 278.58c-1.7-37.28-64.2-68.48-138-68.48-0.18 0-0.393-0.001-0.606-0.001-18.047 0-35.651 1.901-52.62 5.514l1.646-0.294v72.68c0 0.86 0 1.72 0.1 2.56 15.316-3.041 32.924-4.781 50.939-4.781 0.19 0 0.38 0 0.57 0.001h-0.029c59.86 0 110.94 18 137.88 45.3v-50.98c0.001-0.537 0.044-1.064 0.128-1.577l-0.008 0.057zM957.3 372.3c-3.96-36.3-65.48-66.3-137.88-66.3-0.224-0.001-0.489-0.001-0.754-0.001-17.996 0-35.547 1.901-52.465 5.514l1.639-0.293v72.78c0 0.84 0 1.7 0.1 2.56 15.301-3.053 32.891-4.801 50.889-4.801 0.208 0 0.416 0 0.624 0.001h-0.032c59.86 0 110.94 18 137.88 45.3zM957.3 468.3c-4-36.32-65.48-66.32-137.88-66.32-0.106 0-0.231 0-0.356 0-19.297 0-38.083 2.186-56.124 6.325l1.681-0.324c-10 27.38-41.060 49.8-83.52 61.76v53.58c26.82-27.48 78.12-45.72 138.32-45.72 59.86 0 110.94 18 137.88 45.3z" />
<glyph unicode="&#xe946;" glyph-name="brainstorming" d="M930.46 242.12c-11.3 77.62-30.86 124.54-58.28 140.12 34.604 19.187 57.64 55.499 57.64 97.191 0 61.171-49.589 110.76-110.76 110.76s-110.76-49.589-110.76-110.76c0-41.056 22.339-76.895 55.524-96.026l0.536-0.285c-28.9-15.7-46.18-66.6-56.46-118.46l-77.66 200c-1.455 3.656-4.96 6.194-9.059 6.2h-218.361c-4.1-0.006-7.605-2.544-9.037-6.134l-0.023-0.066-77.66-200c-10.28 51.86-27.56 102.76-56.46 118.46 33.699 19.411 56.021 55.231 56.021 96.265 0 61.149-49.571 110.72-110.72 110.72s-110.72-49.571-110.72-110.72c0-41.669 23.019-77.962 57.034-96.856l0.566-0.288c-27.42-15.58-46.98-62.5-58.28-140.12-10-68.7-10-138.32-10-139.020 0.011-5.36 4.359-9.7 9.72-9.7 0 0 0 0 0 0v0c5.36 0.011 9.7 4.359 9.7 9.72 0 0 0 0 0 0v0c0 0.68 0 68.88 9.86 136.2 12.14 83.38 33.74 129.3 60.84 129.3h66.94c24.96 0 47.36-48.56 60.54-130.52h-46v38.62c-0.242 5.175-4.497 9.279-9.71 9.279s-9.468-4.104-9.709-9.258l-0.001-0.022v-48.34c0-5.368 4.352-9.72 9.72-9.72h144.88c0.243 0.006 0.529 0.010 0.815 0.010 18.358 0 33.24-14.882 33.24-33.24s-14.882-33.24-33.24-33.24c-0.287 0-0.572 0.004-0.857 0.011l0.042-0.001h-109.32c-0.556 0.114-1.195 0.18-1.85 0.18s-1.294-0.066-1.912-0.19l0.062 0.010h-60.52c-20 0-47.56 16.74-47.56 33.24v91.28c0 5.368-4.352 9.72-9.72 9.72s-9.72-4.352-9.72-9.72v0-91.28c0-31.66 40.32-52.68 67-52.68h48l-42.78-110.24c-0.418-1.044-0.66-2.254-0.66-3.52 0-5.368 4.352-9.72 9.72-9.72h561.86c0.003 0 0.006 0 0.009 0 5.357 0 9.7 4.343 9.7 9.7 0 1.274-0.246 2.491-0.692 3.605l0.023-0.065-42.82 110.24h62.4c29.081 0.034 52.646 23.599 52.68 52.677v91.283c0 5.368-4.352 9.72-9.72 9.72s-9.72-4.352-9.72-9.72v0-91.28c-0.023-18.349-14.891-33.217-33.238-33.24h-74.802c-0.562 0.119-1.208 0.187-1.87 0.187s-1.308-0.068-1.931-0.198l0.061 0.011h-109.3c-0.243-0.006-0.529-0.010-0.815-0.010-18.358 0-33.24 14.882-33.24 33.24s14.882 33.24 33.24 33.24c0.287 0 0.572-0.004 0.857-0.011l-0.042 0.001h144.88c5.368 0 9.72 4.352 9.72 9.72v0 48.34c-0.242 5.175-4.497 9.279-9.71 9.279s-9.468-4.104-9.709-9.258l-0.001-0.022v-38.72h-46c13.18 82 35.58 130.52 60.54 130.52h66.94c27.080 0 48.68-45.86 60.82-129.12 9.82-67.32 9.88-135.7 9.88-136.38 0 0 0 0 0 0 0-5.361 4.34-9.709 9.699-9.72h0.001c0 0 0 0 0 0 5.361 0 9.709 4.34 9.72 9.699v0.001c0.040 0.8-0.020 70.42-10.020 139.12zM113.66 479.36c0.034 50.398 40.898 91.24 91.3 91.24 50.424 0 91.3-40.876 91.3-91.3s-40.876-91.3-91.3-91.3v0c-50.422 0.057-91.277 40.934-91.3 91.358v0.002zM581.020 185.36c0.034-29.081 23.599-52.646 52.677-52.68h104.583l40.42-104h-533.4l40.42 104h104.58c0.305-0.006 0.666-0.010 1.026-0.010 29.094 0 52.68 23.586 52.68 52.68s-23.586 52.68-52.68 52.68c-0.361 0-0.721-0.004-1.080-0.011l0.054 0.001h-63.66l82.84 213.22h205.040l82.84-213.24h-63.66c-29.039-0.034-52.578-23.531-52.68-52.55v-0.010zM727.74 479.36c0.034 50.398 40.898 91.24 91.3 91.24 50.424 0 91.3-40.876 91.3-91.3s-40.876-91.3-91.3-91.3v0c-50.422 0.057-91.277 40.934-91.3 91.358v0.002zM512 828.28c5.364 0.011 9.709 4.356 9.72 9.719v39.001c0 5.368-4.352 9.72-9.72 9.72s-9.72-4.352-9.72-9.72v0-39c0.011-5.364 4.356-9.709 9.719-9.72h0.001zM624.44 779.76c2.682 0.003 5.108 1.096 6.859 2.859l27.581 27.581c1.771 1.764 2.867 4.204 2.867 6.9 0 5.378-4.359 9.737-9.737 9.737-2.681 0-5.109-1.084-6.87-2.837v0l-27.58-27.64c-1.746-1.76-2.826-4.184-2.826-6.86 0-5.367 4.341-9.72 9.704-9.74h0.002zM392.7 782.62c1.736-1.638 4.083-2.644 6.664-2.644 5.368 0 9.72 4.352 9.72 9.72 0 2.582-1.007 4.929-2.649 6.669l0.004-0.005-27.58 27.64c-1.736 1.638-4.083 2.644-6.664 2.644-5.368 0-9.72-4.352-9.72-9.72 0-2.582 1.007-4.929 2.649-6.669l-0.004 0.005zM337.82 689.36h39c0.132-0.006 0.286-0.010 0.441-0.010 5.368 0 9.72 4.352 9.72 9.72s-4.352 9.72-9.72 9.72c-0.155 0-0.309-0.004-0.462-0.011l0.022 0.001h-39c-0.132 0.006-0.286 0.010-0.441 0.010-5.368 0-9.72-4.352-9.72-9.72s4.352-9.72 9.72-9.72c0.155 0 0.309 0.004 0.462 0.011l-0.022-0.001zM637.46 699.060c0.011-5.36 4.359-9.7 9.72-9.7 0 0 0 0 0 0h39c0.132-0.006 0.286-0.010 0.441-0.010 5.368 0 9.72 4.352 9.72 9.72s-4.352 9.72-9.72 9.72c-0.155 0-0.309-0.004-0.462-0.011l0.022 0.001h-39c-5.368 0-9.72-4.352-9.72-9.72v0zM470.6 606.58v-42c0-17.24 12.32-31.26 27.48-31.26h27.92c15.14 0 27.46 14 27.46 31.26v42c28.369 15.19 47.34 44.625 47.34 78.491 0 49.010-39.73 88.74-88.74 88.74s-88.74-39.73-88.74-88.74c0-33.866 18.971-63.301 46.865-78.258l0.475-0.233zM512 754.34c0.009 0 0.020 0 0.031 0 38.262 0 69.28-31.018 69.28-69.28 0-28.224-16.878-52.506-41.091-63.305l-0.44-0.175c-3.443-1.55-5.797-4.95-5.8-8.9v0-48c0-6.3-3.76-11.82-8-11.82h-27.98c-4.28 0-8 5.52-8 11.82v48c-0.001 3.956-2.366 7.359-5.758 8.875l-0.062 0.025c-24.653 10.974-41.531 35.256-41.531 63.48 0 38.262 31.018 69.28 69.28 69.28 0.025 0 0.050 0 0.075 0h-0.004z" />
<glyph unicode="&#xe947;" glyph-name="star-half-empty" d="M1022.799 564.932c-3.688 11.287-14.77 18.366-33.218 21.235l-308.946 44.92-138.462 280.022c-8.622 16.822-18.67 25.229-30.155 25.229-11.897 0-21.95-8.407-30.152-25.229l-138.477-280.022-308.948-44.92c-18.46-2.871-29.54-9.948-33.228-21.235-3.684-11.287 1.030-23.492 14.156-36.621l224.018-217.861-52.926-307.708c-2.048-13.55-0.821-24.084 3.697-31.691 4.509-7.596 11.489-11.388 20.924-11.388 6.978 0 15.182 2.457 24.617 7.4l276.334 145.248 276.325-145.248c9.435-4.928 17.646-7.4 24.623-7.4 9.444 0 16.43 3.792 20.929 11.388 4.501 7.607 5.732 18.141 3.682 31.691l-52.922 307.708 223.384 217.861c13.546 13.13 18.465 25.335 14.746 36.621zM729.876 367.073l-30.157-28.93 7.394-40.618 36.921-218.484-232.015 122.483v592.654l97.853-198.17 18.45-36.921 40.633-6.156 219.098-31.998-158.177-153.86z" />
<glyph unicode="&#xe948;" glyph-name="teamwork" d="M945.664 745.984h-16.179c3.548 5.985 5.645 13.192 5.645 20.89 0 22.873-18.517 41.421-41.378 41.472h-88.991c3.532 5.856 5.653 12.912 5.734 20.457v0.023c-0.34 22.483-18.477 40.62-40.928 40.96h-117.587c-0.088 0-0.191 0-0.295 0-54.481 0-103.342-24.065-136.532-62.145l-0.185-0.217h-104.448c-6.679 10.675-18.327 17.699-31.624 17.817h-0.017c-0.032 0-0.069 0-0.107 0-6.134 0-11.915-1.515-16.988-4.192l0.199 0.096v28.57c0.006 0.256 0.009 0.557 0.009 0.859 0 22.622-18.338 40.96-40.96 40.96-8.219 0-15.872-2.421-22.286-6.588l0.159 0.097c-1.953 21.071-19.545 37.439-40.96 37.439-22.713 0-41.126-18.413-41.126-41.126 0-1.298 0.060-2.582 0.178-3.849l-0.012 0.162v-16.282c-5.856 3.532-12.912 5.653-20.457 5.734h-0.023c-22.506-0.285-40.675-18.454-40.96-40.933v-89.422c-6.224 3.931-13.798 6.264-21.917 6.264-22.904 0-41.472-18.568-41.472-41.472 0-0.186 0.001-0.372 0.004-0.558v0.028-117.146c0-0.020 0-0.044 0-0.067 0-54.581 24.194-103.511 62.443-136.65l0.226-0.192v-134.246c-14.23-5.486-24.146-19.041-24.166-34.916v-0.002c0.035-6.206 1.545-12.051 4.196-17.213l-0.1 0.215h-28.57c-22.622 0-40.96-18.338-40.96-40.96v0c0.024-7.986 2.268-15.442 6.146-21.791l-0.105 0.185c-21.050-1.978-37.393-19.56-37.393-40.96 0-22.716 18.415-41.13 41.13-41.13 1.316 0 2.617 0.062 3.902 0.183l-0.164-0.012h15.77c-3.548-5.985-5.645-13.192-5.645-20.89 0-22.873 18.517-41.421 41.378-41.472h88.991c-3.532-5.856-5.653-12.912-5.734-20.457v-0.023c0-22.622 18.338-40.96 40.96-40.96v0h117.555c0.086 0 0.188 0 0.29 0 54.462 0 103.314 24.021 136.539 62.047l0.182 0.213h134.758v-7.066c0.346-22.661 18.769-40.905 41.467-40.96h0.005c7.965 0.015 15.393 2.3 21.675 6.244l-0.171-0.1c1.953-21.071 19.545-37.439 40.96-37.439 22.713 0 41.126 18.413 41.126 41.126 0 1.298-0.060 2.582-0.178 3.849l0.012-0.162v14.336c5.847-3.564 12.911-5.691 20.468-5.734h0.012c22.683 0.289 40.96 18.745 40.96 41.469 0 0.001 0 0.002 0 0.003v0 88.883c5.985-3.548 13.192-5.645 20.89-5.645 22.873 0 41.421 18.517 41.472 41.378v117.151c0.003 0.39 0.005 0.851 0.005 1.313 0 53.914-23.607 102.315-61.048 135.429l-0.192 0.167v97.382h4.608c20.69 0.011 37.459 16.786 37.459 37.478 0 6.203-1.507 12.054-4.175 17.207l0.098-0.209h28.57c0.236-0.005 0.514-0.008 0.793-0.008 22.622 0 40.96 18.338 40.96 40.96 0 8.176-2.395 15.792-6.522 22.185l0.097-0.161c21.050 1.978 37.393 19.56 37.393 40.96 0 22.716-18.415 41.13-41.13 41.13-1.316 0-2.617-0.062-3.902-0.183l0.164 0.012zM416.051 578.15h101.888l30.72-11.162c20.61-7.677 44.796-13.801 69.823-17.298l1.857-0.213v-103.424l-11.162-30.72c-12.974-35.011-20.48-75.454-20.48-117.649 0-0.111 0-0.222 0-0.333v0.017-13.619h-82.637l-30.72 11.162c-26.423 9.89-57.045 16.803-88.893 19.377l-1.219 0.079v135.578l11.162 30.72c10.59 28.735 17.628 61.968 19.618 96.555l0.043 0.93zM112.64 583.885v117.146c0 11.565 9.376 20.941 20.941 20.941s20.941-9.376 20.941-20.941v0-72.704c0-5.655 4.585-10.24 10.24-10.24s10.24 4.585 10.24 10.24v0 197.325c0 11.537 9.353 20.89 20.89 20.89s20.89-9.353 20.89-20.89v0-160.256c0-5.655 4.585-10.24 10.24-10.24s10.24 4.585 10.24 10.24v0 212.685c0 11.565 9.376 20.941 20.941 20.941s20.941-9.376 20.941-20.941v0-208.179c0-5.655 4.585-10.24 10.24-10.24s10.24 4.585 10.24 10.24v0 179.814c0 11.565 9.376 20.941 20.941 20.941s20.941-9.376 20.941-20.941v0-179.814c0-5.655 4.585-10.24 10.24-10.24s10.24 4.585 10.24 10.24v0 117.862c-0.033 0.395-0.051 0.854-0.051 1.318 0 9.388 7.61 16.998 16.998 16.998s16.998-7.61 16.998-16.998c0-0.464-0.019-0.924-0.055-1.378l0.004 0.060v-188.928c0.002-0.38 0.003-0.829 0.003-1.279 0-39.349-6.981-77.067-19.773-111.983l0.724 2.26-11.776-32.666c-0.388-1.035-0.613-2.232-0.614-3.481v-136.807h-189.133v136.806c-0.022 3.176-1.486 6.006-3.77 7.87l-0.018 0.015c-36.061 29.67-58.88 74.301-58.88 124.262 0 0.018 0 0.036 0 0.054v-0.003zM504.218 73.83c-0.005 0-0.011 0-0.017 0-3.155 0-5.977-1.427-7.855-3.67l-0.013-0.016c-29.649-35.881-74.155-58.573-123.962-58.573-0.124 0-0.247 0-0.371 0h-117.127c-11.537 0-20.89 9.353-20.89 20.89s9.353 20.89 20.89 20.89v0h72.806c5.655 0 10.24 4.585 10.24 10.24s-4.585 10.24-10.24 10.24v0h-197.427c-11.565 0-20.941 9.376-20.941 20.941s9.376 20.941 20.941 20.941v0h160.256c5.655 0 10.24 4.585 10.24 10.24s-4.585 10.24-10.24 10.24v0h-212.173c-11.565 0-20.941 9.376-20.941 20.941s9.376 20.941 20.941 20.941v0h207.77c5.655 0 10.24 4.585 10.24 10.24s-4.585 10.24-10.24 10.24v0h-179.917c-11.537 0-20.89 9.353-20.89 20.89s9.353 20.89 20.89 20.89v0h179.917c5.655 0 10.24 4.585 10.24 10.24s-4.585 10.24-10.24 10.24v0h-117.965c-9.388 0-16.998 7.61-16.998 16.998s7.61 16.998 16.998 16.998v0l206.234-0.41c34.097-1.806 66.056-8.562 95.96-19.571l-2.264 0.729 32.666-11.878c1.035-0.388 2.232-0.613 3.481-0.614h85.197v-154.829c0.040-15.291 9.18-28.437 22.289-34.311l0.239-0.096zM643.789 73.83h-2.56l2.56 1.024zM893.133 312.115v-117.146c0-11.565-9.376-20.941-20.941-20.941s-20.941 9.376-20.941 20.941v0 72.704c0 5.655-4.585 10.24-10.24 10.24s-10.24-4.585-10.24-10.24v0-197.325c0-11.537-9.353-20.89-20.89-20.89s-20.89 9.353-20.89 20.89v0 160.256c0 5.655-4.585 10.24-10.24 10.24s-10.24-4.585-10.24-10.24v0-212.685c0-11.452-9.284-20.736-20.736-20.736s-20.736 9.284-20.736 20.736v0 208.179c0 5.655-4.585 10.24-10.24 10.24s-10.24-4.585-10.24-10.24v0-179.814c0-11.565-9.376-20.941-20.941-20.941s-20.941 9.376-20.941 20.941v0 179.814c0 5.655-4.585 10.24-10.24 10.24s-10.24-4.585-10.24-10.24v0-117.862c0.033-0.395 0.051-0.854 0.051-1.318 0-9.388-7.61-16.998-16.998-16.998s-16.998 7.61-16.998 16.998c0 0.464 0.019 0.924 0.055 1.378l-0.004-0.060v188.928c0 0.128 0 0.279 0 0.431 0 39.666 7.094 77.674 20.083 112.826l-0.73-2.255 11.674 32.666c0.388 1.035 0.613 2.232 0.614 3.481v103.118c8.397-0.614 16.896-1.024 25.293-1.024h163.84v-102.4c0.022-3.176 1.486-6.006 3.77-7.87l0.018-0.015c35.705-29.72 58.266-74.176 58.266-123.901 0-0.037 0-0.074 0-0.111v0.006zM945.664 683.52h-207.77c-5.655 0-10.24-4.585-10.24-10.24s4.585-10.24 10.24-10.24v0h179.917c11.565 0 20.941-9.376 20.941-20.941s-9.376-20.941-20.941-20.941v0h-179.917c-5.655 0-10.24-4.585-10.24-10.24s4.585-10.24 10.24-10.24v0h117.965c9.388 0 16.998-7.61 16.998-16.998s-7.61-16.998-16.998-16.998h-189.030c-39.806 0.077-77.916 7.24-113.168 20.294l2.269-0.736-32.666 11.776c-1.035 0.388-2.232 0.613-3.481 0.614h-103.117v189.133h103.117c0.005 0 0.011 0 0.017 0 3.155 0 5.977 1.427 7.855 3.67l0.013 0.016c29.668 35.941 74.226 58.675 124.094 58.675 0.077 0 0.154 0 0.231 0h117.134c11.565 0 20.941-9.376 20.941-20.941s-9.376-20.941-20.941-20.941v0h-72.806c-5.655 0-10.24-4.585-10.24-10.24s4.585-10.24 10.24-10.24v0h197.427c11.565 0 20.941-9.376 20.941-20.941s-9.376-20.941-20.941-20.941v0h-160.256c-5.655 0-10.24-4.585-10.24-10.24s4.585-10.24 10.24-10.24v0h212.173c11.537 0 20.89-9.353 20.89-20.89s-9.353-20.89-20.89-20.89v0z" />
<glyph unicode="&#xe949;" glyph-name="meeting" d="M937.56 532c-5.523 0-10-4.477-10-10v0-289.38h-84.84c17.323 13.51 28.392 34.339 28.52 57.759v268.421c0 28.84-17.14 54-42.18 66.44 39.78 14.36 68.22 51.82 68.22 95.66 0 56.2-46.78 102-104.28 102s-104.26-45.74-104.26-102c0-43.84 28.44-81.3 68.22-95.66-25.040-12.52-42.18-37.6-42.18-66.44v-66.98h-125.58c-0.143 0.002-0.313 0.003-0.483 0.003-24.965 0-45.236-20.097-45.517-44.996v-0.027c0-0.009 0-0.020 0-0.031 0-9.347 2.903-18.016 7.856-25.155l-0.096 0.146h-78.020c4.857 6.993 7.76 15.662 7.76 25.009 0 0.011 0 0.022 0 0.033v-0.002c-0.292 24.927-20.568 45.022-45.537 45.022-0.163 0-0.325-0.001-0.488-0.003h-125.455v66.98c0 28.84-17.14 54-42.18 66.44 39.78 14.36 68.22 51.82 68.22 95.66 0 56.2-46.78 102-104.26 102s-104.28-45.74-104.28-102c0-43.84 28.44-81.3 68.22-95.66-24.94-12.52-42.18-37.6-42.18-66.44v-268.4c0.128-23.441 11.197-44.27 28.356-57.657l0.164-0.123h-84.84v289.38c0 5.523-4.477 10-10 10s-10-4.477-10-10v0-518.44c0-5.523 4.477-10 10-10s10 4.477 10 10v0 209.060h245.12v-209.060c0-5.523 4.477-10 10-10s10 4.477 10 10v0 222c0 5.523-4.477 10-10 10v0h-120.56c-32.12 0-58.24 24.64-58.24 54.9v119.18c7.25-4.935 16.2-7.88 25.838-7.88 0.057 0 0.114 0 0.17 0h90.551v-67.48c0-5.523 4.477-10 10-10v0h77.48c32.1 0 58.22-24.62 58.22-54.9v-265.82c0-5.523 4.477-10 10-10s10 4.477 10 10v0 265.82c0 41.3-35.080 74.9-78.22 74.9h-67.58v57.48h192.78v-398.2c0-5.523 4.477-10 10-10s10 4.477 10 10v0 398.2h192.78v-57.48h-67.48c-43.14 0-78.22-33.6-78.22-74.9v-265.82c0-5.523 4.477-10 10-10s10 4.477 10 10v0 265.82c0 30.28 26.12 54.9 58.22 54.9h77.48c5.523 0 10 4.477 10 10v0 67.48h90.54c0.046 0 0.101 0 0.156 0 9.64 0 18.592 2.945 26.006 7.984l-0.161-0.104v-119.24c0-30.26-26.12-54.9-58.24-54.9h-120.64c-5.523 0-10-4.477-10-10v0-222c0-5.523 4.477-10 10-10s10 4.477 10 10v0 209.12h245.12v-209.060c0-5.523 4.477-10 10-10s10 4.477 10 10v0 518.44c0 5.523-4.477 10-10 10v0zM146.72 720.9c0 45.18 37.8 82 84.28 82s84.26-36.76 84.26-82-37.8-82-84.26-82-84.28 36.8-84.28 82zM434.72 421.76h-236.060c-0.144-0.003-0.314-0.005-0.484-0.005-13.927 0-25.249 11.156-25.515 25.020v112.025c0 30.26 26.12 54.9 58.24 54.9s58.22-24.64 58.22-54.9v-66.98h-44.54v40.8c0 5.523-4.477 10-10 10s-10-4.477-10-10v0-50.8c0-5.523 4.477-10 10-10v0h200.2c0.423 0.025 0.917 0.040 1.415 0.040 13.829 0 25.040-11.211 25.040-25.040s-11.211-25.040-25.040-25.040c-0.498 0-0.992 0.015-1.483 0.043l0.068-0.003zM708.72 720.9c0 45.18 37.8 82 84.26 82s84.28-36.76 84.28-82-37.8-82-84.28-82-84.24 36.8-84.24 82zM825.3 421.76h-236.1c-0.423-0.025-0.917-0.040-1.415-0.040-13.829 0-25.040 11.211-25.040 25.040s11.211 25.040 25.040 25.040c0.498 0 0.992-0.015 1.483-0.043l-0.068 0.003h200.22c5.523 0 10 4.477 10 10v0 50.8c0 5.523-4.477 10-10 10s-10-4.477-10-10v0-40.8h-44.64v67.040c0 30.26 26.12 54.9 58.22 54.9s58.24-24.64 58.24-54.9v-112c-0.268-13.888-11.589-25.043-25.516-25.043-0.142 0-0.284 0.001-0.426 0.003h0.021zM599.76 814.7c2.759 0.006 5.254 1.129 7.060 2.94v0l22.84 22.82c1.737 1.796 2.807 4.247 2.807 6.947 0 5.523-4.477 10-10 10-2.7 0-5.151-1.070-6.95-2.81l-22.837-22.817c-1.815-1.811-2.938-4.314-2.938-7.080 0-5.523 4.477-10 10-10 0.006 0 0.013 0 0.019 0h-0.001zM612.58 726.34c0-5.523 4.477-10 10-10v0h32.28c5.523 0 10 4.477 10 10s-4.477 10-10 10v0h-32.28c-5.523 0-10-4.477-10-10v0zM512 850.18c5.523 0 10 4.477 10 10v0 32.26c0 5.523-4.477 10-10 10s-10-4.477-10-10v0-32.26c0-5.523 4.477-10 10-10v0zM417.16 817.64c1.821-1.884 4.37-3.053 7.193-3.053 5.523 0 10 4.477 10 10 0 2.823-1.169 5.372-3.050 7.19l-22.823 22.823c-1.821 1.884-4.37 3.053-7.193 3.053-5.523 0-10-4.477-10-10 0-2.823 1.169-5.372 3.050-7.19l0.003-0.003zM369.14 716.34h32.28c5.523 0 10 4.477 10 10s-4.477 10-10 10v0h-32.28c-5.523 0-10-4.477-10-10s4.477-10 10-10v0zM460.42 659.68c0-5.523 4.477-10 10-10v0h83.14c5.523 0 10 4.477 10 10v0 34.32c12.636 12.96 20.43 30.692 20.43 50.245 0 39.765-32.235 72-72 72s-72-32.235-72-72c0-19.553 7.794-37.285 20.445-50.26l-0.015 0.015zM460 744c-0.001 0.087-0.001 0.191-0.001 0.294 0 28.719 23.281 52 52 52s52-23.281 52-52c0-15.333-6.636-29.116-17.193-38.633l-0.046-0.041c-2.018-1.836-3.28-4.474-3.28-7.406 0-0.005 0-0.010 0-0.015v0.001-28.46h-63.060v28.4c0 0.010 0 0.021 0 0.033 0 2.922-1.254 5.552-3.252 7.38l-0.008 0.007c-10.517 9.519-17.111 23.205-17.16 38.431v0.009z" />
</font>
</defs>
</svg>
